<svg xmlns="http://www.w3.org/2000/svg" aria-hidden="true" style="position:absolute;width:0;height:0;overflow:hidden">
  <defs>
    <symbol id="icon-wrap" viewBox="0 0 32 32">
      <path d="M20.087 19.674c.194-.406.288-.927.355-1.369.076-.497.1-.999.146-1.499.101-1.098.116-2.196.206-3.296.095-1.154.43-2.25.651-3.381.104-.53.267-1.028.424-1.543.152-.495.253-1.001.378-1.503.042-.167.157-.456-.081-.533-.289-.093-.637.335-.828.482-.392.3-.946.451-1.391.665-.477.229-.945.476-1.4.745-.409.242-.8.509-1.17.806-.409.327-.769.703-1.192 1.011-.398.29-.729.622-1.076.971-.359.362-.71.714-1.013 1.126-.338.458-.558.915-.789 1.43-.23.513-.396 1.05-.614 1.568-.105.25-.158.499-.236.757-.078.259-.182.51-.258.77-.082.28-.195.56-.249.846-.043.228-.016.459-.013.689.002.11.153.104.166 0 .111-.911.45-1.778.707-2.658.119-.408.32-.803.461-1.204.162-.462.355-.983.602-1.407.493-.846 1.196-1.565 1.905-2.233.296-.279.647-.489.958-.751.387-.325.738-.68 1.149-.979.777-.565 1.643-1.011 2.513-1.413.37-.17.795-.287 1.121-.535.163-.124.314-.253.483-.37l.021-.078c-.009.04-.018.08-.03.12-.03.117-.057.235-.084.353-.21.919-.539 1.808-.714 2.733-.184.973-.475 1.929-.602 2.913-.145 1.131-.096 2.268-.197 3.4-.05.558-.076 1.117-.127 1.675a8.005 8.005 0 0 1-.142.91c-.049.235-.076.506-.161.729-.026.069.087.116.119.05z"/>
      <path d="M15.465 11.125c-.048-.522-.605-.904-.989-1.197-.129-.098-.271-.176-.393-.284-.097-.086-.182-.182-.293-.253-.288-.187-.626-.294-.923-.474a8.323 8.323 0 0 0-1.782-.795c-.277-.091-.467-.257-.721-.378-.128-.061-.24-.097-.355-.18-.075-.054-.147-.124-.238-.151-.422-.122-.309.433-.248.656.188.694.368 1.402.438 2.119.03.307.043.615.097.919.068.379.227.733.346 1.097.204.625.271 1.283.508 1.896.128.33.164.7.25 1.044.099.395.231.784.309 1.184.078.398.11.806.199 1.203.04.175.106.337.155.508.03.105.039.201.107.291.036.048.117.005.083-.049-.11-.172-.117-.485-.147-.681-.052-.331-.061-.664-.104-.995-.082-.629-.288-1.235-.431-1.851-.057-.248-.079-.497-.173-.735a4.516 4.516 0 0 1-.233-.799c-.124-.625-.332-1.203-.528-1.807-.194-.596-.164-1.247-.277-1.861-.1-.546-.23-1.076-.366-1.614-.008-.033-.063-.224-.036-.236.019-.008.165.137.195.158.086.061.168.089.263.128.138.055.237.144.361.22.499.308 1.127.361 1.642.645.28.154.545.334.823.489.293.162.582.241.838.468.235.209.507.368.755.563.27.212.625.419.725.772.021.075.149.064.141-.019z"/>
      <path d="M11.908 18.18c-.046.249.117.45.361.508.237.057.501.02.742.039.264.021.529.043.792.07.544.056 1.02.235 1.538.392.515.156 1.022.203 1.557.216.556.014 1.127-.025 1.68.047.447.058.881.216 1.328.288.186.029.487.143.625-.05.147-.207-.031-.576-.16-.741-.038-.049-.136-.023-.144.038-.026.18.019.346-.072.515-.06.112.131.181.154.065.033-.164.011-.361.076-.513h-.149c.056.13.231.442.072.532-.068.038-.27-.047-.342-.063a10.4 10.4 0 0 1-.916-.231c-.743-.23-1.568-.146-2.337-.169a4.909 4.909 0 0 1-1.246-.179c-.371-.108-.732-.263-1.114-.329-.356-.062-.717-.072-1.076-.094-.322-.02-1.212.124-1.245-.323-.005-.067-.112-.093-.126-.017z"/>
      <path d="M11.833 18.192c.004.143.082.212.036.369-.035.121-.121.216-.139.351-.04.288.269.479.259.785-.01.292-.26.528-.197.825.007.032.039.074.046.098.036.125.05.205.052.338.002.187.056.335.088.519.049.286-.075.574.077.836.141.243.406.442.662.55.231.098.49.131.737.159.43.049.834.163 1.247.29.71.218 1.399.491 2.1.738.347.122.723.227 1.043.409.23.131.436.297.692.375.395.12 1.039.378 1.346-.058.153-.216.145-.59.195-.839.074-.379.133-.765.253-1.133.116-.357.235-.68.267-1.055.018-.206.078-.405.09-.612.012-.185-.015-.369-.006-.555.017-.356.131-.787-.005-1.133-.07-.179-.193-.434-.381-.505-.119-.045-.166.142-.052.189.221.091.237.657.232.82-.01.329-.056.648-.047.978.017.612-.163 1.227-.348 1.804-.102.316-.151.639-.204.966-.043.26-.035.6-.127.844-.14.375-.419.276-.734.202-.296-.07-.536-.128-.794-.294-.474-.306-.999-.481-1.53-.669-.609-.216-1.207-.457-1.825-.644-.306-.093-.611-.188-.922-.261-.299-.07-.604-.069-.904-.139s-.686-.26-.814-.561c-.065-.154-.021-.293-.018-.454s-.03-.308-.065-.465c-.04-.181-.014-.323-.037-.498-.023-.185-.134-.265-.09-.477.058-.279.22-.471.158-.773a1.082 1.082 0 0 0-.159-.369c-.082-.128-.102-.185-.063-.338.033-.126.114-.223.104-.355-.007-.092-.075-.166-.084-.258-.008-.087-.14-.09-.138 0z"/>
      <path d="m12.483 22.7.001-.02-.154.042c.123.221.03.616.023.856-.008.261.016.52.051.778.082.596.04 1.191.094 1.786.023.243.089.49.137.73.051.254.081.377.282.546.396.332.829.605 1.248.907.216.156.438.305.643.477.197.165.344.385.544.542.364.287.869.272 1.285.143.486-.15.966-.351 1.435-.546.416-.173.683-.575.932-.93.314-.449.515-.944.61-1.482.052-.295.112-.587.104-.891-.006-.241.022-.507-.019-.744-.005-.032-.038-.061-.068-.068l-.028-.006c-.121-.028-.167.145-.051.185l.027.009-.072-.094c.012.186-.062.364-.061.55.001.278-.002.558-.056.834-.092.473-.203.915-.451 1.334-.231.392-.534.891-.962 1.082-.432.193-.895.389-1.346.531-.306.096-.548.138-.863.036-.279-.091-.403-.285-.6-.483-.313-.314-.697-.558-1.054-.817-.215-.156-.447-.287-.656-.451-.151-.119-.408-.268-.505-.434-.108-.184-.111-.475-.154-.687-.057-.285-.054-.562-.063-.852-.017-.553-.104-1.091-.141-1.64-.027-.393.125-.965-.137-1.3-.043-.055-.147-.01-.141.058l.002.02c.009.103.155.105.162 0zM18.273 8.607c.151-.162-.809-.819-.928-.891-.393-.238-.858-.37-1.317-.305-.477.068-.871.279-1.241.579-.149.121-.417.376-.178.551.016.012.046.008.059-.008.424-.505 1.149-.639 1.766-.602.327.02.598.104.872.281.223.145.535.415.581.702l.054-.071-.019.001c-.071.004-.072.114 0 .111l.019-.001c.04-.002.059-.034.054-.07-.067-.473-.683-.896-1.107-1-.607-.148-1.218-.093-1.773.199-.134.07-.245.189-.382.252l-.076.061.079-.224c.052-.066.175-.132.249-.181.354-.235.745-.41 1.172-.448.808-.072 1.632.524 2.082 1.143.018.025.057.03.074 0a.602.602 0 0 1 .02-.034c.022-.037-.03-.079-.061-.047z"/>
      <path d="M13.337 9.241c.329-.384.729-.49 1.22-.381.318.07.514.023.829-.066a1.66 1.66 0 0 1 .493-.082c.191.008.307.118.473.185.324.13.808.103.921.516.014.051.09.03.079-.022-.063-.303-.312-.425-.586-.502-.154-.043-.311-.077-.455-.149-.081-.041-.15-.107-.238-.136-.147-.05-.311-.023-.461 0-.214.033-.413.133-.626.163-.294.042-.57-.107-.865-.086-.366.026-.645.22-.828.527-.015.026.022.056.043.033zM19.31 8.183c.014-.353-.312-.601-.577-.78a3.574 3.574 0 0 0-1.327-.539c-.48-.088-.906-.018-1.35.181-.2.09-.392.213-.568.344-.13.096-.207.216-.32.319-.043.039.012.108.061.079.074-.044.112-.119.174-.18.14-.138.341-.252.514-.347.382-.21.808-.333 1.245-.295.415.037.825.184 1.196.365.346.168.843.443.901.86.004.03.049.021.05-.007z"/>
      <path d="M16.282 7.252c.596-.217 1.155-.13 1.712.134.21.1.406.189.597.33.177.13.297.368.483.47.051.028.096-.05.046-.078-.181-.1-.309-.347-.481-.473a4.088 4.088 0 0 0-.799-.438c-.484-.216-1.087-.173-1.568.019-.021.009-.013.044.01.036zM11.569 8.396c.242-.793 1.169-1.255 1.903-1.458.783-.216 1.624-.192 2.311.268l.043-.101-.014-.003c-.069-.013-.1.093-.03.107l.014.003c.063.013.095-.066.043-.102-.742-.52-1.658-.52-2.506-.263-.684.207-1.701.731-1.809 1.536-.004.029.036.042.045.012z"/>
      <path d="M14.518 7.039a3.319 3.319 0 0 0-1.753.333c-.255.126-.467.253-.663.463-.072.077-.414.421-.335.478-.046-.033-.112.033-.079.079l.012.017c.028.038.077.04.105 0 .294-.418.529-.725 1.001-.964a3.51 3.51 0 0 1 1.711-.369c.023.001.023-.034 0-.036z"/>
      <path d="M13.327 6.906c.243-.599.881-1.011 1.385-1.372.431-.309.993-.479 1.52-.531.322-.032.57.085.864.186.302.102.669.149.945.308.296.17.456.542.59.841.16.357.246.73.126 1.113l.086-.023-.016-.015c-.049-.044-.119.026-.072.072l.015.015c.029.029.074.013.086-.022.207-.611-.12-1.397-.522-1.868-.218-.255-.519-.307-.826-.399-.337-.101-.677-.302-1.028-.332-.605-.052-1.349.192-1.835.544-.493.356-1.26.818-1.361 1.473-.004.027.031.037.041.011z"/>
      <path d="M18.84 6.579c.095-.011.09-.029.168-.096.256-.218.515-.332.829-.14.153.094.279.228.424.334.07.052.184.099.245.161.092.093.307.45.122.572-.037.024-.014.083.03.072.16-.039.161-.3.131-.427-.066-.278-.377-.4-.579-.565-.229-.187-.456-.412-.775-.383-.259.024-.46.226-.62.415-.016.019-.008.061.024.057zM14.258 5.788c-.271-.277-.77-.51-1.162-.439a.951.951 0 0 0-.232.08 1.648 1.648 0 0 1-.595.166c-.238.017-.438.043-.645.173-.37.232-.673.589-.853.986-.088.195-.146.371-.135.587.014.278.183.509.19.789.002.085.133.086.133 0-.002-.449-.302-.761-.101-1.223.173-.398.43-.75.797-.992.36-.238.793-.135 1.176-.317.536-.256.918-.01 1.388.243.033.018.067-.024.04-.052z"/>
      <path d="M15.958 4.931c-.09-.169-.215-.309-.301-.484-.064-.13-.144-.243-.279-.308-.17-.083-.33-.043-.508-.066-.196-.026-.274-.179-.443-.244-.425-.164-.741.294-1.17.123-.126-.05-.228-.131-.37-.133-.162-.002-.329.083-.478.142-.245.096-.482.035-.734.065-.166.02-.345.047-.507.083-.479.106-.419.617-.742.88-.224.182-.505.234-.566.557-.022.115.008.217-.066.322-.047.067-.124.122-.175.189-.056.074-.116.146-.091.24.016.06.063.082.102.127.024.029.067.046.088.077.078.112.035.213.018.314-.023.143-.04.171.04.297.124.197.208.365.3.577.074.169.136.18.294.246.04.016.064-.047.028-.068-.144-.084-.206-.132-.268-.3-.04-.109-.013-.07-.064-.175s-.143-.188-.195-.29c-.072-.142.021-.268.015-.402-.006-.128.031-.09-.043-.207-.072-.113-.159-.104-.173-.245-.016-.169.14-.229.235-.341.092-.108.077-.114.091-.247.018-.165.024-.284.181-.4.095-.07.205-.117.302-.181a.603.603 0 0 0 .246-.301c.079-.194.12-.392.321-.503.107-.059.211-.066.324-.087.13-.024.263-.063.395-.069.105-.004.202.032.304.029.188-.006.339-.08.512-.144.193-.071.357-.09.547 0 .054.026.104.057.162.077.166.058.309.033.47-.027.277-.103.489-.242.763-.029.087.068.134.151.247.172.083.016.209-.018.296-.011.293.021.416.188.532.423.074.151.186.245.298.367.03.032.08-.009.06-.046z"/>
      <path d="M14.763 4.162c.143.01.261-.271.341-.35.308-.305.619-.063.963-.172.317-.1.563-.322.875-.428.051-.017.103-.035.156-.046.187-.038.278.062.415.17.052.042.076.079.15.102.131.039.27-.007.403-.006l.214.021c.183.033.27.139.258.319.046.203.018.164.029.303.02.258.109.369.296.55a.638.638 0 0 1 .211.441.553.553 0 0 0 .047.211c.123.302.247.579.108.899-.023.053.054.101.079.046.13-.277.116-.412.02-.689-.053-.153-.134-.306-.154-.467-.016-.124-.001-.222-.066-.333-.094-.159-.329-.245-.398-.42-.076-.192.024-.403-.023-.597-.063-.26-.319-.37-.563-.383-.253-.013-.362.029-.576-.151-.081-.068-.122-.114-.231-.135-.272-.052-.593.12-.813.26-.268.17-.481.251-.8.232-.133-.008-.252-.029-.384.015a.713.713 0 0 0-.283.192c-.074.079-.178.362-.28.377-.023.003-.015.037.005.038z"/>
      <path d="M19.082 4.985c.297.099.566-.263.813-.382.245-.118.387-.096.651-.011.07.023.127.063.201.076.155.027.279-.046.425-.087.241-.067.584-.115.587.306 0 .093-.091.192-.104.285-.017.122.021.167.082.278.102.186.144.396.176.603.082.084.095.188.038.314l-.041.056c-.029.093-.064.213-.153.266-.044.026-.015.107.037.087.174-.07.17-.197.249-.355.086-.172.075-.188.011-.352-.061-.159-.081-.32-.139-.477-.044-.12-.162-.263-.16-.391.003-.216.231-.382.073-.594-.11-.146-.313-.18-.482-.161-.116.013-.221.063-.333.086-.223.044-.392-.035-.599-.103-.188-.062-.341-.008-.518.075-.239.112-.541.459-.805.434-.029-.003-.032.041-.007.049zM15.706 3.56a13.289 13.289 0 0 0-1.026-.382c-.181-.061-.358-.134-.539-.193-.151-.05-.383-.141-.54-.144-.153-.003-.229.158-.29.29-.124.271-.124.566-.056.849.014.061.1.034.091-.025-.041-.279-.057-.61.113-.856.113-.163.166-.124.338-.076.122.034.244.059.363.103.489.179 1.013.39 1.527.48.026.005.048-.034.02-.046zM14.625 8.456l.009.004.034-.045-.002-.002a.035.035 0 0 0-.036-.009c-.055.014-.094.07-.12.117a.471.471 0 0 0-.043.226c-.001.094.134.089.143 0 .007-.064-.01-.13.012-.192.012-.034.058-.083.055-.118-.002-.021-.023-.036-.043-.024a.04.04 0 0 1-.009.005c-.014.008-.016.032 0 .04zM15.035 8.325c-.055-.001-.077.031-.097.078-.022.053-.055.103-.007.153.043.045.111.043.165.021a.196.196 0 0 0 .073-.054c.027-.03.062-.045.092-.071.045-.038.07-.102.037-.156-.031-.052-.097-.063-.152-.06-.069.004-.108.037-.153.085-.038.04-.095.066-.107.125-.012.062.082.089.095.026.005-.022.033-.036.049-.049.02-.015.034-.033.052-.05a.098.098 0 0 1 .078-.034c.011 0 .031-.003.039.004.016.014-.003.028-.018.04-.024.02-.052.032-.074.056-.019.02-.032.04-.06.049-.008.002-.036.011-.044.004-.014-.013-.002-.018 0-.033.004-.025.008-.069.039-.074.034-.006.025-.059-.008-.059zM16.126 8.3l.004-.009c.012-.026-.012-.051-.038-.038-.072.034-.115.174-.031.218s.187.004.243-.065c.068-.084.033-.191-.073-.22-.108-.029-.189.075-.19.174 0 .051.082.05.078 0-.005-.052.034-.116.093-.105.076.014.061.081.016.12-.017.015-.034.028-.057.03-.017.002-.053.004-.067-.006-.033-.024.009-.085.026-.109l-.052-.014.001.011c.002.022.035.038.047.012zM15.576 8.292c-.056.08-.024.189.087.176.1-.012.169-.128.148-.223-.025-.111-.143-.136-.225-.069a.202.202 0 0 0-.073.134c-.005.071.046.11.076.167.02.037.073.018.075-.02.003-.069-.078-.109-.041-.179.017-.032.067-.076.095-.033.028.041.001.11-.038.136-.062.04-.076-.022-.057-.068.012-.029-.032-.043-.047-.02zM16.478 8.434c-.023.04-.059.076-.064.124a.094.094 0 0 0 .069.099.219.219 0 0 0 .14-.017.18.18 0 0 0 .098-.103c.025-.056.048-.109.01-.165-.031-.046-.088-.063-.141-.056-.113.013-.158.123-.163.225-.003.066.093.063.101 0 .005-.043.01-.097.052-.12.023-.013.067-.019.081.01.012.024-.012.072-.022.095-.017.037-.092.081-.135.06-.041-.02.016-.099.028-.129.012-.031-.037-.05-.053-.022zM16.934 8.632c-.048.059-.172.164-.085.241.104.091.245.04.31-.069.028-.048.06-.115.043-.171-.02-.07-.087-.075-.148-.077-.064-.002-.11.009-.152.06-.038.046-.079.109-.052.168.014.03.068.031.081 0 .024-.056.039-.129.111-.132l.039-.001c.03.002.034.007.027.038s-.026.066-.045.09c-.02.025-.055.056-.09.054-.015-.001-.063-.013-.07-.028-.014-.032.058-.111.074-.137s-.024-.06-.045-.034zM12.603 8.315c.286-.179.777-.261 1.092-.123.23.101.275.243.363.454.027.066.005.068.054.123.041.047.107-.021.068-.068-.075-.089-.041-.269-.116-.376a.73.73 0 0 0-.427-.273c-.34-.074-.776.03-1.056.229-.021.015-.002.049.02.034z"/>
      <path d="M19.412 5.124c.134-.018.325-.131.425-.218.082-.071.133-.192.265-.151.047.015.193.085.22.112.024.024.074 0 .06-.035-.029-.075-.101-.082-.166-.12-.076-.043-.113-.087-.207-.071-.128.022-.181.145-.27.225-.09.081-.218.174-.331.221-.017.007-.017.038.005.035zM21.245 4.865c.163-.024.078.46.09.54.016.1.066.165.124.244.134.183.234.298.249.536.016.26-.009.555-.192.755-.037.04.025.101.06.06.238-.279.296-.807.155-1.144-.022-.053-.049-.102-.085-.147s-.092-.077-.123-.124c-.087-.128-.081-.25-.098-.387-.018-.143.01-.29-.128-.375-.006-.004-.013-.003-.02 0l-.042.023c-.012.006-.003.021.008.019zM14.643 5.862c.464-.341.956-.493 1.529-.51.275-.008.473.047.722.154.14.06.29.119.442.136.026.003.032-.043.006-.046-.237-.032-.426-.194-.645-.278-.224-.085-.465-.073-.699-.051-.539.052-.96.21-1.386.554-.022.018.008.057.031.04zM14.662 5.991c-.2.108-.395.244-.566.395-.086.076-.167.16-.252.239-.044.041-.103.08-.132.132-.034.062.065.106.091.038.02-.053.107-.111.144-.149.068-.069.133-.14.204-.206a3.2 3.2 0 0 1 .535-.407c.027-.016.003-.056-.024-.042zM13.539 5.006c-.03.151-.052.31-.061.463h.085l-.002-.013c-.005-.042-.066-.057-.079-.011l-.004.013c-.015.058.078.074.084.011.014-.15.017-.308.01-.459-.001-.019-.03-.025-.034-.005zM10.251 6c.18-.011.381.009.553.059.092.027.181.049.259.107.056.04.081.073.145.096.053.019.091-.069.039-.091-.078-.035-.131-.104-.209-.14a1.402 1.402 0 0 0-.278-.079 1.33 1.33 0 0 0-.518-.01c-.032.007-.026.06.008.058zM11.015 5.936c.058.01.107.059.146.101.015.016.027.036.042.051.023.022.054.037.079.056.041.032.087-.035.054-.07-.026-.028-.061-.035-.089-.058-.022-.018-.04-.038-.064-.054a.308.308 0 0 0-.163-.066c-.022 0-.028.035-.005.039zM11.079 5.181c.308.04.559.328.707.58l.031-.077-.012.003c-.054.016-.045.099.013.099h.012c.04 0 .064-.045.045-.079-.154-.278-.47-.551-.797-.576-.032-.003-.03.045 0 .049zM11.426 5.598a.496.496 0 0 1 .219.218l.022-.054-.013.002c-.046.006-.028.083.02.072l.012-.003c.024-.005.034-.035.022-.054a.55.55 0 0 0-.264-.226c-.026-.011-.044.033-.019.046zM12.739 8.473a.7.7 0 0 0-.176.299c-.01.03.021.053.047.047l.01-.002c.031-.006.03-.047.008-.062l-.009-.006.018.043a.61.61 0 0 1 .152-.27c.033-.031-.017-.08-.05-.05zM18.961 9.595c-.14-.036-.219.172-.139.269.099.119.288.05.371-.053.119-.149-.046-.296-.204-.262a.254.254 0 0 0-.174.14c-.027.059-.041.141.035.167.055.019.085-.062.038-.091.005.012.007.013.007.003a.198.198 0 0 1 .008-.026.15.15 0 0 1 .016-.034.151.151 0 0 1 .116-.064c.03-.001.073.008.093.033.027.034-.006.072-.032.096-.042.038-.118.077-.175.054-.036-.015-.05-.046-.044-.083.005-.03.026-.089.066-.083.041.006.061-.053.018-.065zM18.231 10.538c-.077.055-.026.142.049.167.078.025.16-.043.192-.11.038-.077.008-.162-.076-.189-.072-.024-.14.02-.18.078-.035.052-.056.163.032.176.046.007.072-.047.032-.075.006.004-.003-.007-.003-.004 0-.001-.002-.004 0-.012a.12.12 0 0 1 .02-.043c.021-.029.056-.05.09-.03.052.03.005.092-.027.118-.019.015-.041.027-.065.019-.022-.007-.052-.027-.03-.05s-.007-.064-.035-.045zM16.772 11.932c-.04.058-.059.13-.024.195.03.056.091.104.157.099.145-.01.257-.141.273-.28.02-.169-.21-.277-.335-.173-.065.054-.134.127-.149.213a.19.19 0 0 0 .008.103c.015.039.05.056.069.09.024.042.104.027.097-.026a.14.14 0 0 0-.038-.081c-.032-.04-.027-.075.001-.119a.29.29 0 0 1 .099-.098c.044-.021.122.024.128.075a.314.314 0 0 1-.034.109c-.014.03-.037.045-.065.062-.035.021-.066.046-.106.025-.068-.034-.074-.111-.036-.168.018-.028-.026-.053-.044-.026zM18.276 11.989c-.038.053-.036.101.021.143a.19.19 0 0 0 .182.022c.116-.048.179-.209.105-.317-.071-.102-.216-.038-.291.025-.041.034-.081.098-.077.154.004.068.07.125.137.119.066-.005.066-.098 0-.103-.074-.005.007-.094.032-.111.027-.018.082-.056.115-.034.047.031.013.123-.015.155a.119.119 0 0 1-.069.04c-.037.006-.111-.011-.087-.062a.03.03 0 0 0-.053-.031zM16.016 13.111c-.031.107.098.144.18.139.113-.007.204-.156.186-.263-.009-.058-.064-.12-.114-.148-.059-.033-.13-.01-.177.031a.256.256 0 0 0-.087.203c.001.059.038.119.099.124.02.002.035-.018.035-.036.002-.034-.018-.046-.029-.075a.146.146 0 0 1 .009-.107c.019-.035.067-.08.11-.059.03.015.067.062.067.095 0 .051-.044.136-.095.15-.026.007-.126.008-.116-.036s-.055-.063-.069-.019zM17.754 13.21c-.038.031-.026.086.003.12.038.045.087.038.136.017.044-.019.087-.044.107-.089s.007-.095-.02-.135c-.047-.07-.147-.13-.221-.06-.066.062-.07.203.001.263a.047.047 0 0 0 .066-.066.12.12 0 0 1-.016-.109c.015-.042.045-.032.074-.008.026.021.056.062.027.092-.015.016-.038.025-.057.033-.009.004-.021.012-.031.01-.002-.001-.022-.016-.02-.019.029-.034-.015-.077-.049-.049zM18.936 12.794c-.03.12.094.148.186.122.122-.034.19-.183.112-.291-.031-.043-.113-.092-.168-.08-.029.007-.056.03-.079.047-.032.023-.066.047-.086.082-.055.097-.022.277.119.261.067-.008.07-.104 0-.107-.049-.002-.044-.081-.024-.111.01-.015.028-.028.042-.039.011-.008.035-.034.049-.037.018-.004.066.025.078.041.04.053.001.129-.054.151-.029.012-.117.034-.108-.022.007-.042-.055-.061-.066-.018zM19.394 11.018c-.015.095.046.198.154.18s.172-.134.133-.235c-.039-.104-.149-.136-.245-.087a.187.187 0 0 0-.102.118c-.014.067.028.1.062.149.026.037.08.023.083-.023.004-.048-.062-.09-.021-.13.03-.029.08-.048.115-.017.045.04.034.107-.018.134-.062.033-.099-.025-.101-.082-.002-.033-.055-.044-.06-.008zM20.255 9.098c-.04.052-.08.119-.041.182s.122.09.192.076c.145-.029.304-.185.23-.343a.31.31 0 0 0-.15-.142c-.076-.029-.158.03-.215.075-.07.056-.127.13-.128.224 0 .037.009.074.03.105s.066.042.084.071c.035.057.114.007.088-.052-.011-.025-.03-.035-.051-.051-.049-.037-.058-.083-.027-.141A.281.281 0 0 1 20.381 9c.053-.03.067-.019.108.018.073.066.052.147-.025.202-.039.028-.086.05-.134.037-.088-.023-.058-.078-.025-.13.02-.033-.028-.058-.05-.029zM16.761 10.786c.029.043.054.096.113.099a.224.224 0 0 0 .138-.057c.096-.089.043-.231-.051-.297-.054-.038-.11-.039-.163 0-.041.03-.08.069-.09.12-.02.098.044.227.154.228.055 0 .07-.089.013-.098-.044-.007-.066-.05-.065-.092.001-.046.057-.095.097-.064s.081.094.034.136c-.013.012-.046.032-.064.032-.024-.001-.044-.033-.06-.05-.027-.028-.079.009-.056.043zM15.257 12.352c-.007.108.124.122.202.098.126-.038.159-.2.078-.298-.043-.051-.119-.083-.186-.067s-.101.076-.125.135c-.02.049-.035.109-.011.159a.103.103 0 0 0 .146.047.04.04 0 0 0 0-.069c-.015-.008-.045-.014-.053-.027-.009-.015.005-.051.011-.066.009-.024.022-.064.046-.078.034-.019.082.009.102.037.037.051.028.126-.034.149-.03.012-.112.028-.115-.022-.002-.039-.059-.039-.061 0zM14.267 14.841c.047.137.181.281.326.172.064-.048.127-.138.129-.22a.269.269 0 0 0-.144-.227c-.15-.072-.362.089-.374.243s.202.344.347.239c.056-.04.008-.129-.055-.094-.065.036-.176-.085-.162-.146.015-.065.125-.151.193-.121.111.049.078.2.002.262-.087.072-.177-.046-.209-.123-.013-.031-.065-.02-.053.014zM15.889 14.54c-.018.047-.048.083-.025.135a.12.12 0 0 0 .109.075c.084-.002.169-.091.175-.174.006-.086-.069-.151-.152-.147-.074.003-.194.083-.122.164.018.02.049.012.062-.008.019-.03.018-.054.06-.059.028-.003.057.012.056.043-.001.032-.039.07-.068.081-.018.006-.038 0-.043-.021s.011-.052.014-.073c.006-.043-.05-.06-.066-.018zM15.034 13.392c-.019.063-.081.116-.076.185.001.018.014.032.032.032h.016c.027-.001.039-.038.014-.052l-.014-.008.016.028c.006-.062.048-.112.059-.172.005-.03-.038-.044-.047-.013zM17.618 14.225c-.012.074-.048.141-.073.211-.017.047-.048.1-.031.151.005.013.018.027.033.025l.016-.002c.026-.003.043-.04.015-.055l-.013-.007.017.03c-.006-.117.08-.229.093-.345.003-.031-.051-.039-.056-.008zM19.714 9.763c-.015.153-.06.317-.012.469.006.02.037.033.052.014l.012-.016c.018-.024-.004-.053-.032-.041l-.019.008.046.018c-.028-.152.002-.3.014-.452.003-.04-.058-.04-.062 0zM19.848 9.948l.015.007-.015-.027c.001.063-.017.124-.01.188.008.062.032.119.032.182 0 .052.076.05.079 0 .004-.057-.015-.107-.029-.162-.018-.069-.003-.138-.01-.208-.002-.015-.009-.025-.023-.03l-.015-.006c-.032-.012-.055.041-.023.056zM20.427 10.434c-.003.028-.006.053-.002.081.002.01.013.02.022.022l.015.003c.039.007.056-.05.017-.061l-.015-.004.023.023c-.003-.021.001-.043.003-.064.004-.04-.059-.04-.063 0zM20.788 8.258c-.005.044-.049.072-.075.104-.017.022-.003.064.03.053l.011-.004c.024-.008.03-.05 0-.055l-.011-.002.014.053a.251.251 0 0 0 .079-.149c.002-.032-.046-.031-.049 0zM16.611 15.74c-.008.03-.003.053-.015.083s-.032.059-.048.088c-.041.071-.074.143-.055.226.011.047.078.026.072-.02-.013-.085.021-.16.049-.238.014-.04.035-.091.018-.133-.002-.005-.006-.008-.011-.008h-.006c-.002 0-.003.001-.003.002zM14.526 16.311c-.005.059.008.127.06.163.056.038.127.024.179-.014.115-.084.1-.246-.012-.324-.118-.082-.268-.038-.316.099a.262.262 0 0 0 .002.189c.043.088.116.07.197.069.05-.001.064-.078.012-.089-.029-.006-.094.006-.113-.017-.016-.02-.003-.072.004-.094.02-.064.062-.104.132-.078.064.024.1.095.056.154-.024.032-.073.058-.107.027-.024-.021-.034-.063-.039-.093-.006-.033-.053-.022-.055.008zM15.473 16.585l.001-.012c.002-.017-.019-.033-.036-.027-.046.017-.082.046-.089.098-.006.049.017.1.056.131.095.076.202-.025.246-.108.029-.055.034-.112-.009-.161a.176.176 0 0 0-.14-.061c-.099.011-.165.135-.143.225.011.046.083.047.094 0a.268.268 0 0 1 .04-.099c.012-.016.02-.023.039-.02.03.005.049.03.037.057-.013.032-.05.094-.089.099-.022.002-.041-.022-.048-.042-.009-.027.006-.051.028-.067l-.039-.01.005.011c.011.025.045.009.047-.012zM17.936 17.069c-.037.101.028.208.143.165.097-.037.203-.179.158-.284-.056-.129-.227-.11-.292-.002-.032.053-.075.139-.059.203.015.058.067.089.118.112.066.029.119-.057.058-.099-.015-.01-.044-.022-.053-.037-.012-.019.01-.052.017-.071.011-.027.018-.059.043-.076.021-.015.055-.014.071.011.025.04-.033.11-.059.136-.05.049-.098.035-.08-.04.01-.042-.049-.057-.064-.017zM19.056 16.505c-.047.002-.064.044-.065.088 0 .05.031.076.076.09.098.029.215-.015.223-.129.007-.113-.113-.225-.223-.163-.049.028-.076.088-.08.142-.004.056.029.087.077.11.055.027.095-.045.047-.081-.007-.006-.02-.013-.024-.021-.004-.006-.001.009.001-.005.003-.02.01-.049.029-.06.046-.026.087.043.078.081-.009.041-.055.049-.09.045-.023-.002-.035 0-.039-.02s.005-.035.007-.054a.352.352 0 0 1-.012.02l.006-.004c.017-.011.012-.041-.011-.04zM19.37 14.559c-.054.079-.093.207-.028.29.079.102.243.067.304-.034.075-.124.06-.3-.103-.337a.26.26 0 0 0-.191.042c-.066.046-.063.128-.053.199.009.064.106.093.124.017.005-.02 0-.091.01-.104.012-.016.059-.025.076-.023.081.009.058.118.026.164-.036.053-.125.052-.146-.012-.019-.056 0-.126.027-.176.016-.03-.027-.055-.046-.027zM13.797 17.198a2.32 2.32 0 0 1-.04.184c-.014.053-.04.106-.019.16.009.024.038.035.058.015l.014-.014c.027-.026-.008-.066-.039-.05l-.018.009.051.039c.017-.112.046-.222.06-.335.005-.039-.062-.048-.069-.009zM14.482 21.497a1.66 1.66 0 0 0 .021.456c.002.013.017.029.031.031a.088.088 0 0 0 .017.002c.043.006.073-.047.031-.074-.003-.002-.007-.063-.009-.076a2.84 2.84 0 0 1-.017-.133c-.007-.069-.008-.138-.016-.207a.029.029 0 0 0-.058 0zM18.892 20.004l.006.012c.007.015.029.019.042.011.212-.134.361-.362.599-.459.043-.017.041-.085-.012-.085-.099 0-.205.096-.273.161-.113.107-.221.239-.346.331l.041.011-.006-.012c-.019-.034-.068-.004-.052.03zM12.085 10.8c-.116.095-.225.197-.338.296-.043.038-.087.076-.124.12-.039.046-.059.107-.098.152-.03.036.015.078.05.05.04-.031.055-.069.082-.111a.898.898 0 0 1 .144-.158c.109-.102.211-.211.322-.311.026-.024-.012-.06-.038-.038zM12.857 12.652c-.029.058-.087.13-.048.197.034.057.109.065.168.056.102-.014.274-.085.247-.216-.029-.139-.231-.146-.336-.103-.123.05-.146.3.018.302.063.001.069-.085.014-.105-.022-.008-.015-.065-.005-.079.014-.017.046-.021.065-.024.036-.005.166-.006.142.056-.017.046-.106.075-.149.085-.034.008-.099.017-.113-.028-.011-.036.025-.093.036-.126.008-.023-.028-.038-.039-.017zM13.207 11.479c-.101.06-.127.186-.027.263.05.039.117.043.174.014.059-.029.085-.091.101-.152.034-.135-.082-.229-.213-.198-.117.028-.179.166-.171.278.004.054.087.073.1.014.011-.05.023-.113.058-.152.027-.031.112-.052.127.002.007.025-.009.066-.019.088a.077.077 0 0 1-.088.047c-.091-.022-.062-.122-.011-.165.022-.018-.006-.053-.03-.039zM12.832 10.028a.142.142 0 0 0-.076.162c.017.074.084.108.155.114.068.005.143-.005.194-.054.068-.064.1-.153.059-.241-.063-.135-.26-.227-.382-.11-.105.101-.109.349.051.4.066.021.11-.08.047-.113-.053-.027-.047-.132-.022-.174.041-.07.128-.027.171.018.06.063.021.151-.058.171-.032.008-.078.016-.109 0-.044-.023-.049-.102-.008-.133.023-.018.004-.053-.023-.04zM11.372 9.846c-.014.06-.028.113.03.154.038.027.098.057.145.052.114-.011.157-.19.106-.275-.066-.109-.236-.106-.322-.026a.174.174 0 0 0-.048.188c.023.063.088.136.16.133.044-.002.058-.049.033-.08-.036-.045-.146-.098-.065-.165.037-.03.121-.041.152.004.02.029.007.12-.03.133-.015.005-.057-.013-.073-.018-.047-.017-.044-.049-.046-.094-.001-.023-.036-.03-.041-.005zM11.002 11.738c-.038.058-.08.141-.037.207.04.063.127.078.195.081.07.003.14-.003.192-.054.072-.071.095-.156.046-.248-.07-.133-.298-.248-.425-.126-.09.087-.066.401.108.342.036-.012.058-.063.024-.092-.032-.027-.071-.118-.026-.15.058-.041.173.049.2.095.052.088-.069.115-.128.114-.027 0-.086 0-.103-.029-.015-.027.019-.093.023-.122.004-.039-.051-.046-.069-.019zM12.653 10.911c-.051.043-.075.098-.057.165.014.055.065.069.116.076.095.012.238-.027.26-.135.026-.13-.132-.216-.242-.203a.233.233 0 0 0-.165.106c-.042.075.002.168.032.238.012.03.06.026.073 0 .022-.042.019-.072.007-.117-.014-.046-.019-.072.028-.1.043-.025.15-.02.164.044.011.052-.08.072-.117.076-.017.002-.061.005-.075-.008-.032-.029-.006-.091.014-.117.017-.022-.018-.043-.036-.028zM12.113 12.949c-.064.07-.123.212.001.255.066.023.138.016.187-.036a.317.317 0 0 0 .084-.194c-.002-.153-.18-.22-.297-.139-.114.078-.14.266-.021.35.048.034.117-.034.082-.082-.031-.043-.033-.111.008-.15s.106-.02.104.041a.22.22 0 0 1-.038.094c-.015.021-.068.036-.088.012-.016-.019.026-.104.022-.134-.002-.02-.027-.035-.043-.018zM13.742 10.815c-.005.032-.027.06-.028.092a.137.137 0 0 0 .037.086c.049.056.123.07.191.042s.141-.096.15-.172c.009-.077-.049-.148-.114-.182-.121-.063-.314-.024-.363.114-.055.155.138.285.276.261.063-.011.05-.098 0-.116-.028-.01-.059-.007-.086-.02-.018-.009-.058-.04-.064-.06-.02-.062.09-.081.131-.077.026.002.05.009.07.026.044.037.029.075-.006.112s-.078.054-.124.025c-.053-.033-.039-.071-.032-.122.003-.024-.034-.034-.037-.01zM17.683 15.406c-.102-.033-.14.12-.104.191.067.13.25.091.329-.001.044-.051.066-.12.036-.184a.202.202 0 0 0-.176-.121c-.155-.001-.257.164-.172.296.028.043.114.031.106-.029-.006-.052-.012-.12.055-.132.026-.005.045.009.062.028.023.025.017.046-.002.072-.031.041-.102.074-.147.034-.024-.021-.025-.098.006-.1.03-.002.037-.044.007-.053zM18.983 20.991c-.015.169-.029.339-.049.509-.011.1-.022.199.035.288.014.022.058.023.063-.008a.11.11 0 0 0-.002-.062c-.005-.019-.038-.021-.041 0l-.013.029.053.007c-.053-.103-.029-.217-.021-.327.012-.145.018-.29.027-.434.002-.034-.049-.033-.052 0zM19.143 21.087c-.015.155-.036.31-.045.465-.006.094-.005.196.047.278.015.024.048.023.064 0 .005-.008.011-.015.015-.023.013-.019-.009-.05-.032-.041-.014.006-.021-.25-.019-.28l.023-.399c.002-.035-.051-.034-.054 0zM19.369 21.207c.05.042.011.317.008.38-.005.116-.032.27.064.358.029.026.067-.001.061-.036l-.003-.017c-.003-.021-.032-.024-.045-.012a.166.166 0 0 1-.014.013l.058.008c-.087-.117-.047-.315-.05-.456-.002-.066.015-.232-.047-.279-.023-.017-.054.022-.032.041zM19.274 23.04c-.009.073-.021.147-.026.221s.017.145.008.219l.077-.011-.006-.016c-.009-.024-.042-.032-.057-.008l-.009.014c-.031.052.064.084.072.03.01-.074-.015-.14-.017-.214-.002-.079.008-.158.013-.237.002-.036-.051-.035-.055 0zM19.465 23.139c0 .031.005.058.009.089.006.049-.003.088-.009.136-.01.072.007.146.011.218.003.066.104.035.073-.02l-.008-.013c-.009-.015-.033-.02-.045-.006a.106.106 0 0 0-.009.011l.067.027c.007-.077-.021-.151-.015-.229s-.015-.137-.019-.214c-.002-.034-.052-.035-.053 0zM14.354 23.497c.1-.046.181-.116.293-.136.042-.007.083-.009.123-.024.044-.017.082-.041.129-.049.027-.005.021-.041 0-.049-.039-.015-.062-.009-.101.003-.062.018-.121.037-.185.053-.108.027-.189.107-.285.158-.03.016-.004.058.026.044zM13.72 18.432c.022.032.064.052.078.087.015.037.023.065.05.095.04.044.081.102.143.068.024-.013.01-.043-.012-.046-.015-.002-.037-.036-.049-.047-.021-.02-.046-.041-.058-.067-.012-.025-.018-.049-.039-.069-.022-.021-.049-.032-.068-.056-.021-.025-.064.008-.046.035zM16.102 18.842c.026.005.069.095.085.116.034.044.046.091.067.141.021.052.079.146.147.106a.024.024 0 0 0 .005-.038c-.03-.031-.064-.041-.086-.082-.02-.038-.031-.08-.053-.117-.028-.044-.067-.081-.096-.124-.018-.027-.031-.037-.064-.038-.02 0-.026.033-.005.036zM13.507 25.525c-.014.14-.026.28-.041.421-.005.049-.019.102-.018.152s.019.096.02.146c.001.029.036.055.063.036l.028-.02c.03-.022.014-.077-.027-.065a.393.393 0 0 0-.032.01l.052.04c0-.052-.02-.094-.021-.146-.001-.05.011-.102.015-.152.011-.14.015-.28.023-.421.002-.038-.056-.037-.059 0zM16.227 28.972c-.008.075-.036.144-.048.218a1.633 1.633 0 0 0-.019.22l.063-.017-.007-.015c-.008-.018-.032-.014-.041 0l-.01.015c-.029.043.055.074.062.026.012-.081.008-.163.021-.244.011-.068.032-.133.037-.203.003-.038-.054-.037-.058 0zM16.518 28.854c-.004.2-.15.378-.104.585.008.034.055.037.072.009l.034-.038c.028-.018.01-.058-.022-.052a.111.111 0 0 0-.074.043l.066.017c-.029-.199.09-.37.085-.564-.001-.037-.056-.037-.057 0zM16.738 28.919c-.02.084-.148.411.01.433.022.003.046-.009.045-.035v-.025c0-.021-.031-.039-.046-.019l-.014.018.035-.009c-.073-.023.015-.294.026-.349.007-.036-.046-.051-.055-.015zM16.894 27.898c-.008.1-.006.203-.035.299-.021.072-.048.129-.03.204.006.028.037.034.06.024l.041-.017c.032-.013.032-.07-.009-.067a.448.448 0 0 0-.064.009l.052.039c-.011-.085.03-.158.042-.241s.011-.168.015-.252c.002-.046-.067-.045-.071 0zM17.09 27.968c-.012.124-.017.248-.038.37-.006.035.038.073.067.039l.019-.016c.03-.015.013-.058-.016-.059-.023-.002-.032.001-.052.013l.058.045c.019-.13.018-.261.025-.392.002-.041-.059-.04-.063 0zM19.021 17.63c-.011.092-.02.185-.032.277-.008.064-.02.124-.009.188.005.028.039.035.06.024l.012-.006c.013-.006.017-.026.01-.038-.026-.042.003-.143.007-.191.006-.084.008-.17.011-.255.001-.04-.056-.037-.06 0zM17.91 4.382c-.034.18-.099.353-.125.535-.012.083-.013.165-.034.247-.012.046-.034.082-.031.131.001.015.011.031.026.035l.014.003c.022.005.037-.013.033-.033-.007-.045.027-.094.037-.136.018-.077.014-.159.023-.237.02-.18.079-.352.108-.53.005-.033-.045-.048-.051-.014zM18.684 4.939c-.061.133-.134.264-.19.399-.023.055-.035.114-.059.169-.004.01-.071.14-.056.138-.056.006-.046.085.011.077l.016-.003c.013-.002.023-.015.027-.027.08-.248.192-.487.297-.726.014-.031-.031-.058-.046-.027zM18.583 5.766c-.029.048-.064.096-.077.152l.012-.016-.014.006c-.017.008-.013.038.006.041l.015.002c.014.002.03-.003.033-.019.011-.051.043-.096.069-.141.017-.029-.027-.054-.044-.026zM19.899 6.001c-.045.07-.148.173-.118.265.005.015.023.029.04.022l.014-.005c.016-.006.023-.025.01-.038-.001.006-.001.006-.001 0v-.013l.008-.031c.008-.022.02-.043.031-.064.021-.036.045-.07.067-.106.02-.033-.03-.061-.051-.03zM18.171 3.703a.172.172 0 0 0 .041-.044c.015-.021.035-.033.052-.051.015-.016.028-.035.041-.052.015-.02.036-.038.046-.061.009-.02-.006-.049-.031-.041-.044.015-.066.061-.093.096-.015.019-.033.035-.047.054s-.021.043-.04.06c-.02.019.007.056.03.039zM15.651 5.846c-.036.02-.063.043-.075.085-.012.04.006.082.034.111.055.058.149.067.2-.001.05-.065.051-.165-.026-.21-.054-.032-.152-.044-.172.034a.047.047 0 0 0 .011.044c.018.016.046.019.063 0 .007-.008.01-.012.003-.008.004-.002.008-.001.011-.001.031.002.06.02.053.054-.008.04-.039.06-.075.037-.017-.011-.03-.027-.026-.048.004-.024.017-.034.034-.048.027-.023-.008-.064-.037-.048zM14.859 6.214c.007.019-.005.047.002.069s.018.042.032.06c.032.041.077.074.132.072.095-.005.186-.134.159-.227-.024-.08-.14-.11-.214-.106-.113.006-.141.144-.062.213.035.031.088-.008.065-.05-.007-.013-.024-.047-.017-.062.008-.017.042-.011.06-.008.029.005.084.014.083.051-.001.055-.059.127-.115.094a.119.119 0 0 1-.048-.056c-.008-.024.005-.045-.006-.071-.018-.042-.087-.026-.07.019zM16.126 6.282c-.007.038-.002.069.024.098s.061.063.104.063c.074-.001.127-.083.139-.148a.124.124 0 0 0-.123-.152c-.085-.001-.168.085-.162.171.004.05.075.064.09.012.01-.035.024-.075.064-.085.03-.007.044.013.04.04-.004.024-.02.066-.044.078-.019.01-.037-.008-.05-.02-.017-.015-.023-.026-.021-.049.003-.034-.055-.043-.061-.008z"/>
      <path d="M16.517 5.698a.534.534 0 0 1 .452.077c.161.051.191.149.09.291-.093.347-.006.086-.152.241-.056.059-.096.086-.104.176-.015.163.131.288.291.265.094-.013.159-.106.223-.167.135-.128-.047-.133.265-.232.053-.017.14-.003.192-.014-.144.029.267-.063.177-.063.26 0 .256.136.3.301.059.216.064.408.046.631-.005.054.081.054.085 0 .015-.228.029-.354-.039-.571-.041-.128-.046-.386-.181-.465-.142-.083-.373.09-.503.11-.171.027-.22 0-.324.146-.072.101-.18.29-.335.235-.09-.032-.049.017-.037-.163.014-.21-.003-.122.131-.195.096-.053.182-.145.178-.263-.01-.325-.518-.451-.766-.382-.027.008-.016.049.012.043zM19.078 6.75c-.043.031-.09.054-.13.09-.02.018-.043.034-.061.053-.019.021-.029.046-.046.068-.022.027.007.077.041.053a.13.13 0 0 0 .041-.049c.015-.026.035-.042.056-.062.041-.037.086-.065.13-.099.031-.024.002-.077-.032-.054zM19.14 7.078c-.04.005-.065.028-.095.054-.043.037-.091.068-.131.109s-.067.091-.092.142c-.019.038-.04.069-.017.109a.024.024 0 0 0 .038.005c.056-.053.065-.149.118-.209.024-.028.054-.052.082-.077.032-.029.061-.075.103-.088.023-.008.02-.048-.006-.044zM17.849 7.589c.172.098.343.143.496.276.066.058.142.104.205.165.078.073.12.172.198.246.026.024.061-.012.038-.038-.07-.082-.116-.177-.195-.25-.076-.07-.165-.129-.245-.195-.145-.12-.315-.151-.476-.24-.024-.013-.045.023-.021.036zM9.497 7.518c.017-.042.07-.065.101-.097.029-.031.063-.055.092-.084.023-.024.035-.045.063-.064.017-.011.045-.048.062-.053l-.056-.023c.033.048.041.104.062.157.018.048.068.112.072.162l.082-.047c-.02-.014-.043-.083-.058-.104-.027-.038-.044-.075-.068-.114-.029-.048-.082-.086-.14-.069-.105.03-.126.205-.104.294.008.032.049.049.076.031a.132.132 0 0 0 .045-.046c.005-.008.024-.062.028-.064l-.062-.035c.008.021.01.042.014.064.008.056.082.04.098 0a.188.188 0 0 0 .019-.096c-.005-.044-.054-.07-.089-.037a.218.218 0 0 0-.066.112c-.018.066.086.094.102.028a.102.102 0 0 1 .038-.066 3.354 3.354 0 0 1-.089-.037c.003.027-.005.044-.014.068h.098c-.005-.029-.008-.048-.02-.075-.008-.019-.038-.03-.056-.023-.06.022-.052.088-.098.117l.076.031a.24.24 0 0 1 .007-.103c.002-.008.011-.051.021-.054.021-.007.036.039.041.05.025.051.063.091.088.141.018.035.024.056.058.08.032.022.085-.007.082-.047-.007-.069-.052-.124-.079-.186-.026-.061-.039-.128-.079-.183-.012-.017-.034-.03-.056-.023-.075.027-.128.1-.175.157-.03.037-.06.081-.092.117-.034.038-.058.055-.068.107-.005.029.034.04.044.012zM22.305 6.913c.018-.037.034-.059.03-.1-.005-.064-.047-.13-.063-.192a.534.534 0 0 0-.192-.303c-.056-.043-.119.037-.09.09.09.164.047.362.054.538.003.063.098.082.114.016.045-.189.046-.447-.054-.62l-.09.09c.09.066.12.163.16.261.028.068.094.122.07.194-.012.036.045.061.062.026zM21.54 8.004c.069-.028.129-.069.192-.107.038-.022.082-.053.124-.063.029-.007.048-.003.074-.021.044-.03-.003-.093-.046-.059-.015.013-.048.014-.067.023-.036.017-.07.043-.102.066-.063.045-.119.094-.191.126-.02.009-.006.044.015.036zM10.741 9.717c-.063.012-.096.049-.14.095-.074.077-.145.158-.219.235-.113.119-.31.273-.342.442-.007.038.047.068.067.028.075-.149.197-.274.309-.398.055-.06.11-.121.164-.183.05-.058.1-.141.177-.165.035-.011.02-.061-.015-.054zM10.605 10.218c-.072.001-.141.108-.187.152l-.141.134c-.046.045-.073.098-.115.146-.031.035.02.087.052.052.033-.037.051-.084.081-.123.037-.049.082-.091.122-.138.063-.073.116-.157.191-.218.002-.002.001-.005-.002-.005zM13.449 14.38c-.097.068-.192.139-.289.208-.066.047-.145.078-.195.144-.019.024.007.063.035.062l.014-.001c.037-.002.046-.045.018-.066l-.012-.009.014.056c.026-.035.068-.053.104-.076.04-.025.076-.056.114-.084l.23-.174c.034-.025.002-.084-.034-.059zM13.297 14.961c-.147.105-.348.188-.459.334-.02.027.008.056.034.06l.014.002c.037.004.05-.053.019-.069l-.013-.007.008.062c.108-.136.294-.219.432-.321.036-.027.002-.088-.036-.061zM12.519 20.655c-.205-.021-.412.006-.615-.022-.061-.009-.073.078-.011.084a.898.898 0 0 0 .073.006c.055.004.055-.082 0-.086l-.073-.005v.085c.21.002.417-.062.627-.055.004 0 .004-.006 0-.006zM12.302 20.845c-.117.043-.26.026-.371.083a.043.043 0 0 0-.022.038v.009c0 .013.01.029.024.032.028.005.04-.005.065-.016.031-.013.066-.017.098-.023.078-.016.157-.032.229-.064.034-.014.01-.072-.025-.059zM14.284 4.171a.252.252 0 0 0 .059-.128c.007-.031.002-.067.012-.095.008-.025.017-.035.009-.063-.007-.03-.059-.034-.065 0-.003.018-.011.034-.014.053-.005.025.001.05 0 .075-.001.04-.009.093-.036.125-.019.024.012.056.034.034zM15.055 4.584c.014-.039.055-.062.079-.093s.046-.068.067-.102c.023-.037.049-.073.069-.112.018-.035.019-.073.037-.107s-.023-.061-.051-.039c-.031.025-.027.053-.036.09-.014.053-.05.104-.076.152a.643.643 0 0 1-.084.126c-.021.024-.038.043-.046.074-.008.027.034.038.043.012zM10.844 4.929c-.031-.001-.07-.023-.097-.037a.44.44 0 0 1-.074-.045c-.007-.006-.005-.008-.004-.002-.007-.044-.071-.029-.074.01-.004.053.068.076.106.09.042.015.098.037.143.032.03-.003.031-.047 0-.048zM22.771 23.492a3.487 3.487 0 0 1-.559.642c-.199.191-.349.401-.526.611-.322.382-.626.785-.963 1.154a11.5 11.5 0 0 0-.898 1.084c-.137.191.03.393.177.554.59.644 1.727.738 2.436.271.163-.107.286-.26.421-.4.163-.168.338-.328.466-.525.224-.345.309-.787.346-1.192.041-.447.065-.962-.106-1.389-.085-.212-.209-.381-.324-.573-.098-.163-.171-.31-.335-.416-.019-.012-.049-.009-.064.008-.116.13-.119.299-.242.431-.135.145-.296.271-.434.415-.285.294-.589.614-.84.937-.268.344-.517.699-.805 1.029-.262.299-.551.615-.735.97-.01.019-.006.039.007.055.437.505 1.106.529 1.735.497.036-.002.036-.054 0-.056-.291-.015-.585-.02-.873-.07-.18-.031-.695-.158-.759-.389-.023-.082.124-.231.173-.301.102-.146.215-.282.329-.419.156-.189.323-.369.472-.563.161-.21.328-.41.483-.624.2-.276.465-.494.681-.758.159-.195.334-.381.521-.55.07-.064.151-.113.204-.193.089-.134.062-.359.247-.18.14.134.292.453.37.623.149.324.202.655.209 1.013.013.672-.113 1.413-.583 1.915-.203.216-.416.474-.663.637a1.746 1.746 0 0 1-1.268.233c-.34-.078-.706-.219-.956-.471-.062-.062-.218-.22-.232-.322-.023-.163.154-.275.246-.388.435-.535.884-1.055 1.318-1.593.237-.294.456-.627.716-.899.238-.25.476-.48.651-.781.016-.028-.026-.052-.043-.025z"/>
      <path d="M21.787 27.548c.025.009.044.013.07.005a.021.021 0 0 0 .015-.019.054.054 0 0 0 0-.018c-.001-.015-.023-.024-.031-.009a.19.19 0 0 0-.009.021l.019-.015a.346.346 0 0 0-.064.013c-.012.003-.011.018 0 .022zM22.594 27.003c.159-.337.38-.639.521-.984.105-.257.112-.53.136-.802a3.873 3.873 0 0 0-.029-.874c-.021-.146-.041-.305-.082-.447-.044-.152-.148-.28-.196-.431-.026-.082-.159-.045-.129.035.087.24.225.424.28.681.073.345.092.717.058 1.069-.024.252-.023.496-.107.741-.119.35-.341.654-.491.991-.011.026.026.048.038.022zM20.645 26.462c-.078.14-.209.364-.09.519.1.129.331.122.457.185.381.191.733.029 1.033-.267.017-.017-.006-.051-.027-.035a2.185 2.185 0 0 1-.395.241c-.227.105-.364.098-.582-.018-.054-.029-.073-.045-.134-.064-.058-.018-.092.002-.157-.024-.108 0-.148-.063-.122-.191a.284.284 0 0 1 .038-.331c.008-.015-.014-.028-.022-.013z"/>
      <path d="M22.719 25.993c.033-.134.116-.254.15-.387.031-.119.028-.251.029-.373.002-.23.056-.456.043-.686-.008-.139.019-.46-.154-.529-.119-.047-.216.036-.276.128-.052.079-.066.176-.096.264a1.522 1.522 0 0 1-.306.532c-.154.171-.182.229-.203.458-.034.375-.388.706-.747.767-.205.035-.334.047-.478.217-.024.029.014.069.042.042.23-.222.442-.104.699-.209.133-.054.22-.177.311-.285.08-.094.198-.2.242-.318.031-.084.008-.169.01-.255.005-.181.1-.267.211-.395.123-.142.225-.303.289-.481.021-.059.06-.253.105-.291.247-.206.273.425.273.47-.002.446-.07.897-.167 1.326-.004.017.022.024.026.007zM21.22 26.629c.033.089.174.167.237.059.08-.137-.08-.265-.197-.296a.038.038 0 0 0-.041.017c-.029.053-.051.123-.029.182.017.047.067.109.121.104.025-.002.04-.031.021-.05-.023-.024-.056-.047-.07-.079-.015-.038.002-.087.019-.121l-.041.017c.077.018.192.082.167.179-.022.081-.118.012-.139-.033-.012-.027-.059-.008-.049.02zM20.793 26.79c.042.051.092.153.174.116.104-.046.067-.169.023-.244-.021-.035-.047-.076-.087-.09s-.085.006-.11.039c-.052.068-.018.174.037.229.025.025.072-.009.05-.039-.025-.034-.053-.085-.044-.128.006-.032.034-.05.062-.029.02.015.035.044.047.065a.245.245 0 0 1 .036.081c.006.035-.021.088-.064.071-.041-.017-.066-.071-.093-.103-.019-.022-.05.01-.032.032zM21.878 26.488c.071.006.151.027.218-.009a.427.427 0 0 0 .147-.119c.078-.12-.11-.174-.195-.176a.234.234 0 0 0-.245.185c-.011.044-.014.096.017.134.029.035.093.049.126.013a.033.033 0 0 0-.007-.052c-.021-.013-.047-.003-.056-.026-.009-.02.005-.057.012-.076.026-.07.088-.098.16-.095.029.001.105.008.123.034s-.023.049-.044.067c-.029.024-.059.053-.096.066-.049.017-.108.014-.159.018a.019.019 0 0 0 0 .037z"/>
      <path d="M22.183 25.821c.029-.001.055.026.085.029a.124.124 0 0 0 .068-.016.613.613 0 0 0 .112-.076c.074-.066.084-.16-.023-.196a.193.193 0 0 0-.171.026.616.616 0 0 0-.131.113c-.031.038-.033.088.004.123.033.032.088.047.124.016.017-.015.011-.043-.007-.053-.02-.012-.063-.007-.052-.037.007-.019.045-.039.061-.053.026-.024.051-.051.086-.06.022-.006.097-.008.091.027s-.069.07-.096.087c-.011.007-.023.017-.034.023-.023.012-.039.008-.064.002s-.036-.011-.061-.008c-.031.005-.024.056.008.055zM22.495 25.006c-.047.035-.124.053-.108.128.015.073.096.076.154.058.061-.02.137-.069.14-.14.004-.08-.074-.1-.139-.081-.037.011-.038.066 0 .076.017.005.032.003.049.003h.019c.006.001.003-.002-.007-.008v.011c-.015.016-.02.032-.04.045-.013.009-.027.016-.042.021s-.072.023-.064-.01c.006-.021.056-.042.073-.057.024-.022-.008-.065-.035-.046zM7.523 19.185c-.388-.485-.588-1.096-.918-1.619-.322-.508-.608-1.04-.923-1.551-.142-.23-.238-.483-.382-.713-.168-.267-.36-.52-.514-.795-.053-.094-.116-.273-.217-.319-.136-.063-.467.059-.59.109-.463.185-.863.674-1.113 1.089-.256.426-.324 1.03-.23 1.507.049.251.147.442.262.671.13.259.243.538.409.776.289.416.729.684 1.174.91.501.256 1.058.46 1.623.506.339.028.652-.084.978-.141.22-.039.418-.074.596-.215.018-.015.019-.045.008-.064-.049-.09-.117-.143-.192-.209-.191-.168-.241-.36-.35-.583-.179-.368-.386-.713-.576-1.075-.379-.72-.838-1.386-1.247-2.091-.212-.366-.423-.742-.696-1.066-.136-.162-.219-.082-.416.028-.577.323-.822 1.088-1.005 1.68-.011.035.041.047.054.015.144-.359.284-.729.482-1.063.111-.186.209-.327.391-.453.069-.048.214-.185.314-.186.153-.001.233.2.311.307.137.19.253.387.372.588.189.319.388.635.574.955.16.275.347.527.512.797.216.355.386.744.595 1.105.169.293.248.643.423.928.042.067.091.11.152.161.109.092.255.114.026.259-.088.055-.234.055-.333.072-.425.072-.779.173-1.212.095a4.314 4.314 0 0 1-1.084-.342c-.328-.152-.674-.326-.967-.541-.35-.258-.534-.641-.721-1.019-.083-.167-.18-.331-.256-.501-.112-.253-.119-.504-.114-.776.008-.487.128-.867.419-1.258.268-.361.602-.72 1.054-.829.197-.047.323-.091.435.102.096.165.187.325.293.484.471.706.839 1.471 1.294 2.188.215.338.465.68.641 1.039.186.377.354.747.63 1.069.021.025.055-.011.035-.035z"/>
      <path d="M3.216 16.364a.137.137 0 0 0-.031.079.02.02 0 0 0 .01.017l.025.011c.016.005.028-.016.016-.027a.083.083 0 0 0-.021-.017l.009.023.014-.078c.001-.012-.016-.014-.022-.006zM3.52 17.524c.312.305.563.663.881.962.266.25.577.364.899.518a4.61 4.61 0 0 0 1.124.355c.159.029.325.065.485.074.196.011.388-.059.585-.053.086.003.086-.134 0-.134-.16 0-.307.053-.465.068-.205.02-.431-.023-.634-.058-.386-.067-.756-.21-1.111-.368-.337-.151-.636-.27-.915-.526-.294-.27-.529-.596-.819-.871-.021-.019-.051.011-.031.031zM4.946 15.482c-.114-.13-.287-.336-.482-.325-.243.013-.349.339-.494.475-.368.346-.318.857-.102 1.298.011.023.049.007.041-.017a2.79 2.79 0 0 1-.111-.459c-.026-.175-.042-.406.046-.569.052-.097.142-.139.22-.213.047-.044.077-.078.12-.128.067-.078.246-.301.371-.307.131-.007.296.184.371.265.011.012.029-.006.018-.018z"/>
      <path d="M4.642 18.087c.208.137.351.323.581.429.287.132.589.259.881.378.148.06.316.085.47.126.075.02.164.05.242.018.163-.068.167-.247.082-.379-.062-.096-.158-.158-.247-.227a1.829 1.829 0 0 1-.516-.57c-.161-.285-.202-.347-.495-.473-.346-.149-.691-.748-.59-1.12.074-.271.116-.457-.03-.714-.019-.034-.067-.004-.051.03.165.353-.008.512-.039.841-.02.206.103.364.199.539.082.148.183.363.336.45.179.102.357.063.49.265.085.129.136.277.228.407.074.104.155.2.249.285.029.026.059.05.089.075.155.129.231.098.167.334-.059.22-.028.171-.184.129-.072-.02-.147-.028-.22-.047a1.975 1.975 0 0 1-.363-.148c-.229-.111-.468-.176-.699-.279-.205-.092-.378-.25-.568-.371-.015-.009-.028.014-.013.023zM4.516 16.087c-.11.003-.249.124-.162.236.121.155.336.013.418-.105.009-.014.005-.033-.006-.044-.05-.055-.124-.108-.202-.103-.059.005-.134.034-.155.093-.009.025.022.045.043.033.036-.02.075-.045.117-.049.055-.005.109.04.146.077l-.006-.044c-.055.084-.184.193-.287.119-.087-.062.024-.154.093-.16.033-.003.035-.054 0-.053zM4.513 15.521c-.071.026-.2.039-.208.135-.011.137.152.158.249.14.093-.017.223-.066.162-.187-.05-.1-.194-.101-.282-.062-.033.015-.01.069.024.059.053-.017.141-.029.185.015.078.076-.061.108-.113.117a.248.248 0 0 1-.118.002c-.046-.016-.081-.077-.04-.116.038-.036.105-.043.152-.061.027-.01.016-.053-.012-.043zM4.417 16.903c-.034.078-.089.163-.077.251a.525.525 0 0 0 .075.218c.096.133.226-.041.266-.132.059-.14.026-.281-.102-.365-.043-.028-.101-.055-.153-.036s-.08.072-.068.124c.005.023.04.035.056.015.021-.026.025-.059.063-.056.024.002.053.023.072.037.085.064.095.16.054.255-.015.035-.053.116-.093.127-.052.013-.068-.084-.08-.119-.017-.05-.032-.093-.021-.147.011-.052.029-.105.043-.157.005-.02-.025-.034-.034-.014z"/>
      <path d="M5.066 17.54c-.011.034-.048.049-.064.081a.133.133 0 0 0-.011.081.602.602 0 0 0 .044.165c.04.096.126.157.21.065.104-.114.043-.261-.011-.383-.022-.049-.059-.093-.119-.081-.053.011-.104.066-.098.121.003.025.037.049.058.024.006-.007.014-.023.021-.029.026-.024.037-.03.057-.01.017.017.024.063.034.086.017.041.037.08.037.126 0 .034-.034.134-.082.111-.038-.018-.054-.102-.064-.139-.01-.04-.021-.068-.005-.108.014-.036.04-.058.049-.096.008-.035-.043-.049-.054-.015zM5.874 18.235c-.02-.065-.01-.157-.098-.169s-.119.078-.122.148c-.003.076.022.176.097.21.091.041.132-.046.142-.122.005-.041-.055-.051-.074-.02-.01.017-.014.033-.02.051-.008.023-.005.032-.027.013-.033-.029-.042-.084-.042-.126 0-.026.011-.117.055-.073.022.023.021.075.033.103.014.034.067.021.056-.015zM11.436 23.489c-.044-.3-.016-.659-.004-.962.01-.263.148-.468.138-.727a1.572 1.572 0 0 0-.168-.657c-.091-.177-.251-.228-.385-.365-.085-.087-.142-.204-.225-.294-.103-.112-.203-.204-.297-.326-.079-.102-.165-.2-.231-.311-.051-.086-.075-.191-.138-.269-.109-.135-.23-.145-.393-.147-.288-.004-.591-.048-.877-.014-.141.017-.296.041-.383.17-.1.148-.009.345-.032.514-.028.21-.131.384-.182.584-.036.144-.019.187-.095.344-.034.07-.075.059-.073.156.002.128.146.206.2.31.097.189.211.399.293.594.063.15.059.235.2.329.206.139.427.117.607.29.165.159.163.298.244.5.046.114.003.073.075.153.159.174.478.199.686.253.317.082.735.192.995-.082.04-.042-.021-.103-.064-.064-.299.276-.76.07-1.1.008-.306-.055-.464-.117-.56-.425-.046-.147-.07-.329-.19-.435-.264-.235-.613-.113-.784-.486a14.455 14.455 0 0 0-.377-.771c-.059-.112-.121-.146-.064-.29.012-.03.052-.063.066-.096.022-.052.012-.128.021-.183.019-.11.063-.194.101-.297.056-.151.105-.344.115-.506.012-.207-.041-.389.21-.456.24-.064.509-.002.753.005.086.003.218-.024.3-.001.214.062.272.255.375.418.193.302.452.568.682.838.177.208.392.298.498.578.101.268.111.49.031.762-.068.232-.063.448-.058.689.005.227-.012.465.034.687.008.037.06.02.055-.015z"/>
      <path d="M8.886 19.863c-.034-.012-.059-.004-.094-.008-.041-.005-.072-.037-.11-.049-.043-.015-.079-.012-.116-.044-.025-.021-.038-.039-.072-.044-.043-.006-.065.043-.029.07.024.018.046.043.072.058.034.02.069.018.107.025s.071.029.109.038c.041.009.079-.01.12 0 .03.007.042-.037.013-.046zM10.393 20.927c.147.084.243.158.411.172.15.013.514.072.585.236.009.022.048.016.052-.007.02-.113-.162-.186-.25-.215-.093-.03-.192-.076-.291-.081-.096-.005-.178.012-.271-.023-.076-.029-.144-.078-.217-.115-.021-.011-.04.02-.019.032zM10.767 21.291c.141.01.29.034.422.086a.545.545 0 0 1 .198.133c.025.024.095.078.106.107.012.032.053.025.057-.008.008-.069-.034-.076-.082-.119-.064-.056-.105-.11-.185-.148a1.19 1.19 0 0 0-.516-.098c-.03 0-.029.044 0 .046zM10.102 21.265a.57.57 0 0 0-.306-.06c-.056.006-.11.023-.166.025-.042.001-.072-.002-.111.017a.046.046 0 0 0-.023.04v.018c0 .02.021.039.042.032.067-.023.145-.023.215-.04a.505.505 0 0 1 .323.029c.035.014.06-.046.026-.061zM10.092 21.389c-.104-.053-.238-.026-.352-.025-.071 0-.178.003-.219.073-.011.018-.005.047.015.057.026.013.037.015.065.01.021-.004.024-.031.012-.045a.388.388 0 0 1-.026-.031l.007.051c.024-.044.145-.041.189-.043.097-.003.198-.04.29-.001.027.011.045-.034.02-.047zM9.981 21.538c-.094.026-.183.057-.28.069-.048.006-.118.012-.141.063-.01.023-.005.042.015.057.022.016.031.017.058.019.037.002.044-.047.018-.065l-.025-.019.007.05c.016-.035.111-.036.144-.044.076-.019.153-.052.224-.087.025-.012.007-.051-.018-.044zM10.745 22.731c-.142-.038-.321.034-.457.072-.047.013-.038.086.012.085h.011c.017 0 .034-.015.033-.033l-.001-.01-.032.042c.125-.031.285-.121.417-.096.039.008.056-.05.017-.061zM10.79 23.219c.074-.02.143-.008.217.002.023.003.124.009.131.029.007.021.03.025.046.012a.127.127 0 0 0 .013-.011c.017-.013.012-.04 0-.054-.039-.044-.111-.044-.166-.048-.088-.007-.172-.017-.257.01-.038.012-.022.07.017.06zM22.358 21.571c.244-.068.551 0 .804.003.343.003.674-.028 1.014-.062a3.032 3.032 0 0 0 1.502-.593.723.723 0 0 1 .351-.166c.08-.018.248-.02.319-.072.067-.049.073-.096.052-.174-.044-.165-.223-.292-.349-.388-.091-.07-.16-.192-.258-.254-.122-.078-.267-.111-.39-.196-.205-.141-.395-.105-.638-.125a1.591 1.591 0 0 0-.757.096c-.092.038-.178.09-.27.13-.169.073-.336.06-.512.093-.201.037-.339.151-.474.299a3.053 3.053 0 0 1-.596.509c-.134.088-.293.172-.333.34-.039.16.037.285.146.396.201.206.345.195.613.244.293.053.574.057.87.019.294-.038.6-.048.891-.106.277-.055.532-.157.776-.294.118-.067.227-.134.339-.21.129-.089.357-.274.506-.262.031.003.03-.045 0-.048-.289-.028-.594.314-.837.428-.433.204-.832.288-1.305.329-.478.041-.92.105-1.393-.026-.083-.023-.261-.079-.319-.147-.042-.05-.082-.342-.046-.408.031-.056.133-.089.186-.125.151-.107.324-.211.455-.343.207-.207.281-.41.612-.459.161-.024.294-.019.446-.088.24-.108.447-.238.717-.265.241-.024.625-.033.838.08.169.089.354.206.491.329.125.111.42.252.449.415.036.199-.221.165-.362.201-.188.05-.336.215-.5.314-.503.305-1.031.414-1.608.485-.294.036-.592.034-.888.035-.191.001-.37-.036-.555.023-.027.009-.016.052.012.044z"/>
      <path d="M24.55 20.598c.224-.082.505.018.733.04l-.038-.038.001.011c.001.015.011.026.026.026h.011c.042.002.052-.067.01-.075-.226-.044-.54-.116-.761-.031-.04.015-.023.081.018.066zM22.327 14.525c-.276-.005-.561.046-.773.235-.243.216-.273.49-.308.797-.031.274.025.501.102.765.104.357.151.777.34 1.101.206.355.584.949 1.068.7.56-.289.339-.988.337-1.486-.001-.173.012-.334-.045-.499-.062-.178-.169-.337-.211-.524-.071-.312-.023-.661-.205-.946-.099-.155-.195-.216-.378-.185-.266.044-.54.134-.764.289-.548.379-.539.978-.392 1.557.083.327.145.671.275.983.125.298.337.725.601.927.222.169.547.155.799.071.249-.082.293-.243.309-.488.029-.439.109-.883.073-1.324-.028-.337-.206-.674-.353-.971-.025-.051-.101-.007-.076.044.088.183.191.4.256.589.091.267.098.541.089.823-.007.246-.047.49-.064.735-.008.115.014.256-.05.359-.099.158-.368.204-.537.204-.608-.002-.962-.873-1.1-1.369-.14-.498-.396-1.147-.15-1.642.212-.426.598-.56 1.02-.668.573-.147.489.905.623 1.241.038.095.089.185.125.282.064.172.061.331.064.512.003.229.025.451.046.679.027.294-.071.674-.401.76-.288.075-.482-.175-.641-.372-.379-.466-.503-1.073-.645-1.647a1.831 1.831 0 0 1 .032-.912c.129-.405.545-.567.936-.576.027-.001.028-.043 0-.043z"/>
      <path d="M22.056 14.908c.297-.24.35.358.363.472.015.125.017.248.032.372.028.226.087.432.189.635.142.282.233.506.235.829v.228l-.347.181c-.098-.018-.222-.186-.291-.255-.354-.352-.448-.888-.52-1.368-.048-.317-.103-.75.169-.991.369-.327.576.207.576.495 0 .05.075.05.078 0 .014-.229-.043-.565-.288-.667-.271-.113-.476.134-.569.352-.171.402-.026.921.061 1.332.088.417.245.732.559 1.019.134.123.426.325.595.132.096-.109.058-.333.057-.458-.002-.206-.011-.393-.093-.585-.111-.258-.257-.463-.308-.749-.047-.259-.03-.544-.107-.798-.051-.171-.247-.364-.417-.201-.017.016.008.04.026.025z"/>
      <path d="M21.952 14.911c.155.046.197.572.212.714.013.126.026.238.073.356.21.539.578.985.573 1.596 0 .052.079.052.08 0a1.969 1.969 0 0 0-.195-.858c-.144-.308-.395-.631-.439-.972-.028-.218-.055-.454-.12-.664-.029-.094-.075-.194-.18-.204-.018-.002-.021.027-.004.031z"/>
      <path d="M22.186 14.869c.193.133.243.464.278.68.034.21.061.405.118.61.067.242.205.457.28.697.078.25.061.485-.005.732-.011.041.049.068.07.029.282-.517-.136-1.041-.273-1.534-.07-.251-.069-.519-.157-.764-.078-.214-.082-.37-.29-.486-.023-.013-.041.02-.02.034zM5.168 21.556c-.245.241-.445.537-.464.89-.022.424.235.735.493 1.043.241.287.583.423.899.608.354.208.739.489 1.15.566.52.097 1.328.303 1.501-.394a.9.9 0 0 0-.227-.819c-.153-.169-.352-.295-.523-.445-.179-.158-.338-.337-.516-.496-.328-.294-.798-.317-1.132-.617-.224-.201-.516-.419-.82-.476-.362-.067-.422.134-.581.405-.173.296-.303.581-.309.936-.017.848.662 1.227 1.3 1.61.365.219.728.431 1.136.559.319.099.798.256 1.138.18.331-.073.66-.43.756-.747.1-.326-.165-.512-.349-.733-.303-.366-.608-.759-.975-1.066-.322-.27-.781-.415-1.175-.539-.054-.017-.077.067-.023.085.271.087.588.201.832.337.333.187.61.444.862.734.162.186.308.386.472.57.095.108.238.213.274.359.059.23-.132.502-.282.659-.502.523-1.534.154-2.082-.145-.248-.135-.488-.28-.732-.422-.285-.166-.648-.353-.83-.637-.409-.639-.199-1.255.152-1.848.369-.623 1.182.342 1.587.526.12.054.244.091.366.138.211.081.342.192.5.347.24.235.498.437.752.654.282.241.507.664.288 1.024-.199.326-.538.27-.862.24a2.619 2.619 0 0 1-1.091-.333c-.324-.176-.651-.349-.97-.534a2.246 2.246 0 0 1-.798-.841c-.247-.482-.033-.984.313-1.347.019-.02-.011-.05-.03-.03z"/>
      <path d="m5.264 22.129.433-.15a10.264 10.264 0 0 1 .284.211c.128.097.242.208.368.306.199.155.417.282.655.367.372.132.687.206.981.491.084.082.282.208.321.318l-.202.428c-.073.019-.147.03-.223.033-.087.006-.174.002-.261.003-.694.008-1.349-.472-1.877-.887-.27-.212-.596-.553-.546-.933.075-.562.724-.273.967-.031.036.035.089-.018.055-.055-.196-.214-.486-.413-.79-.33a.462.462 0 0 0-.316.416c-.016.758.921 1.255 1.465 1.59.338.208.702.308 1.095.304.246-.003.651 0 .766-.283.113-.275-.303-.547-.468-.698-.306-.281-.663-.328-1.036-.476-.476-.187-.776-.657-1.24-.846-.187-.076-.46-.02-.465.223 0 .023.034.023.036 0z"/>
      <path d="M5.177 22.221c.136-.093.574.226.69.311.191.139.335.298.561.382.655.244 1.367.363 1.882.878.037.037.092-.02.057-.056a2.447 2.447 0 0 0-.906-.567c-.385-.143-.869-.194-1.21-.424-.246-.166-.492-.334-.737-.501-.099-.067-.256-.142-.359-.046-.013.012.004.035.019.025z"/>
      <path d="M5.346 21.974c.319-.064.707.236.963.417.2.142.377.277.596.39.279.144.591.209.868.36.109.06.192.135.285.216.153.133.209.23.306.405.021.037.083.012.069-.029-.225-.684-.968-.745-1.523-1.049-.279-.152-.51-.37-.785-.524-.256-.142-.495-.306-.791-.224-.025.007-.014.044.011.038zM8.137 15.435c-.398.418-.458.922-.076 1.368.213.249.396.399.695.544.349.168.706.428 1.088.512.436.096 1.162.203 1.254-.394a.722.722 0 0 0-.189-.599c-.235-.26-.557-.454-.82-.688-.262-.232-.592-.24-.877-.434-.238-.161-.466-.384-.763-.437-.18-.032-.294-.001-.393.151a1.878 1.878 0 0 0-.302.764c-.087.659.356 1.054.885 1.335.332.176.659.381 1.02.491.278.085.697.209.994.147.28-.058.55-.358.62-.631.063-.248-.107-.378-.261-.535-.287-.293-.534-.628-.863-.88-.266-.204-.635-.3-.951-.39-.055-.016-.078.069-.024.085.201.059.418.126.608.207.247.105.432.269.629.451.169.157.323.332.479.503.057.063.122.124.177.188.149.172.137.362.019.548-.389.614-1.274.334-1.813.072-.422-.205-1.087-.464-1.309-.904-.227-.45-.126-.958.155-1.361.311-.445.909.239 1.224.378.255.113.487.159.711.346.158.132.305.273.47.396.25.186.48.34.483.681.005.489-.43.484-.791.461-.358-.023-.637-.145-.954-.303-.242-.12-.504-.232-.733-.375a1.803 1.803 0 0 1-.575-.603c-.197-.369-.043-.774.211-1.066.018-.021-.011-.051-.03-.03z"/>
      <path d="M8.237 15.895c.162-.155.305-.177.428-.068.045.035.091.068.139.1.095.068.184.147.279.215.17.121.344.223.542.287.286.092.544.134.784.336.065.055.214.15.253.23.196.407-.184.404-.398.42-.54.041-1.008-.245-1.445-.533-.274-.18-.619-.423-.621-.791-.002-.495.541-.287.752-.095.037.033.091-.019.055-.055-.16-.164-.447-.35-.687-.238-.268.124-.224.441-.124.657.18.394.667.643 1.024.852.389.228.762.33 1.213.265.193-.028.495-.159.397-.407-.053-.134-.26-.274-.363-.36a1.315 1.315 0 0 0-.513-.277c-.271-.078-.511-.139-.75-.303-.188-.13-.363-.303-.57-.404-.16-.077-.438-.067-.431.171.001.023.034.023.036 0z"/>
      <path d="M8.168 15.973c.139-.084.561.242.67.323.115.085.214.149.349.196.529.186 1.1.245 1.529.641.038.035.094-.021.057-.056-.187-.18-.418-.298-.658-.396-.366-.15-.78-.161-1.122-.367-.19-.114-.365-.256-.566-.354-.09-.044-.197-.085-.278-.01-.013.012.004.034.02.025zM7.466 11.704c-.408-.383-.707-.947-.886-1.472a6.264 6.264 0 0 1-.2-.799c-.059-.291-.191-.649-.134-.943.059-.303.24-.517.448-.729.138-.141.187-.294.3-.444.025-.158.142-.206.351-.144a1.3 1.3 0 0 1 .194.168c.088.09.163.191.229.298.149.241.239.508.309.781.095.368.116.704.437.929.264.184.414.344.514.662.088.28.078.601.046.891-.043.401-.349.489-.703.575a2.34 2.34 0 0 1-.722.062c-.206-.015-.043.177-.377-.134-.057-.053-.109-.14-.157-.2-.133-.163-.245-.353-.395-.498-.021-.021-.053.011-.032.033.161.171.293.4.427.592.082.117.16.29.311.334.141.041.336-.007.489-.007.256 0 .514-.051.755-.135.15-.052.355-.108.45-.246.098-.144.095-.383.101-.549.015-.421-.013-.939-.325-1.262-.146-.151-.37-.219-.482-.398-.156-.249-.178-.604-.264-.885-.123-.399-.331-.801-.666-1.062-.272-.211-.465-.193-.583.119-.188.496-.713.743-.765 1.316-.021.24.073.494.12.727.066.327.131.655.242.971.188.54.489 1.115.93 1.489.028.024.069-.015.041-.041zM25.932 17.224c.154-.246.328-.481.545-.676.21-.189.465-.306.705-.451.258-.156.421-.253.725-.248.119.002.228.01.334-.056.162-.1.261-.309.403-.437.138-.125.289-.237.399-.389.136-.187.143-.483-.081-.61-.015-.008-.091-.021-.107-.039-.031-.034-.05-.243-.027-.31s.111-.126.154-.186a.968.968 0 0 0 .179-.483c.039-.367-.057-.554-.378-.7-.14-.063-.15-.104-.177-.267-.011-.066 0-.11-.03-.174-.054-.114-.177-.178-.286-.226-.187-.082-.379-.116-.575-.157a1.118 1.118 0 0 1-.744-.569c-.189-.344-.337-.47-.747-.384-.191.04-.317.069-.507-.014-.077-.034-.146-.077-.227-.102-.22-.07-.434-.052-.66-.069-.171-.013-.302-.067-.46.021-.152.084-.289.248-.394.383-.235.301-.16.669-.023 1.001.067.162.159.294.266.43.232.292.313.634.16.986-.183.419-.197.792-.063 1.237.049.164.153.287.247.426.129.19.24.528.235.763-.005.221-.113.401-.148.612-.037.213.08.393.123.597.108.514-.165 1.043-.041 1.545.099.399.447-.007.576-.163.337-.408.52-.816.704-1.308.105-.281.317-.47.549-.652.202-.159.447-.368.68-.478.05-.024.006-.097-.043-.074-.296.132-.581.377-.831.584-.113.093-.235.168-.323.287-.123.164-.166.378-.237.567a2.981 2.981 0 0 1-.307.648c-.102.151-.279.437-.438.535-.306.188-.233-.225-.216-.425.019-.23.069-.448.072-.68a1.802 1.802 0 0 0-.058-.512c-.032-.12-.108-.249-.107-.375 0-.114.061-.22.091-.327.088-.309.053-.575-.039-.875a1.296 1.296 0 0 0-.206-.384 1.348 1.348 0 0 1-.242-.618c-.056-.347-.023-.561.105-.878.057-.142.096-.283.094-.438-.005-.368-.224-.553-.405-.841a1.566 1.566 0 0 1-.238-.727c-.009-.269.256-.639.505-.763.113-.056.471-.013.614-.007.284.012.465.1.718.201.418.167.799-.289 1.103.241.147.256.336.527.613.663.15.073.348.04.509.083.107.029.259.072.351.131.341.221.125.246.187.461.021.075.038.101.1.144.045.031.136.025.186.046.265.106.283.286.276.507-.008.25-.099.435-.253.624-.069.085-.197.203-.203.323-.006.105.022.145.111.189.041.02.09.012.131.031.309.146.165.456-.008.633-.152.155-.332.276-.472.444-.114.137-.149.295-.39.273-.061-.006-.097-.04-.151-.046-.178-.02-.337.084-.485.17-.201.117-.402.236-.601.356-.379.23-.656.568-.887.942-.026.041.039.079.065.038z"/>
      <path d="M28.132 15.022c.146-.11.298-.228.428-.357.076-.075.147-.153.218-.231.039-.043.069-.057.072-.113.001-.021-.025-.028-.038-.016-.119.105-.217.234-.33.346-.063.062-.135.11-.203.165-.063.051-.115.114-.177.165-.022.018.008.056.03.039zM28.649 14.956c.043-.041.091-.076.132-.119.036-.037.069-.071.112-.101.048-.033.115-.076.114-.141 0-.015-.02-.02-.027-.008-.041.066-.105.088-.163.136-.033.028-.058.063-.087.095-.035.038-.074.072-.108.109-.017.018.009.044.027.027zM25.884 13.32c.178-.378.343-.761.5-1.148a1.64 1.64 0 0 0 .124-.529c.012-.209-.056-.45-.014-.656.008-.035-.046-.064-.062-.026-.053.122-.029.181-.015.316.025.242.016.491-.053.725-.13.438-.346.872-.534 1.287-.016.036.037.068.053.031zM27.796 12.339c.02-.038.049-.069.073-.104.029-.042.055-.085.093-.119.032-.029.059-.055.096-.077.026-.016.041-.023.046-.054.003-.023-.018-.044-.041-.031a.645.645 0 0 0-.171.137c-.027.031-.047.069-.069.104-.024.039-.055.075-.074.117-.014.03.03.057.046.027zM25.217 12.895c-.215.572-.352 1.267-.252 1.88.051.313.2.623.285.93.046.166.12.363.114.537-.006.188-.074.392-.124.573-.012.045.056.064.07.019.075-.249.174-.52.12-.781a6.401 6.401 0 0 0-.248-.846c-.267-.738-.176-1.567.088-2.297.012-.034-.041-.047-.053-.014zM25.006 6.821c-.236.095-.416.269-.613.425a5.283 5.283 0 0 0-.783.792c-.394.476-.847.99-1.083 1.566-.242.594-.468 1.234-.503 1.878-.026.488-.091 1.068.503 1.159.033.005.075-.008.082-.046.076-.441.034-.903.16-1.341.142-.492.292-.956.526-1.415.439-.862 1.103-1.644 1.85-2.253.16-.13.337-.283.47-.44.06-.07.109-.127.081-.222-.057-.197-.384-.287-.552-.218-.159.065-.307.207-.457.293-.176.101-.355.199-.507.335a4.898 4.898 0 0 0-.788.946c-.219.331-.544.628-.703.993-.116.264-.169.7-.373.908-.039.04.021.1.061.061.165-.161.232-.479.311-.69.157-.419.447-.723.707-1.082.302-.416.622-.898 1.059-1.186.186-.123.4-.26.601-.355.131-.063.503-.174.454.109-.011.064-.237.231-.289.28-.377.361-.767.669-1.105 1.075a7.02 7.02 0 0 0-.844 1.225c-.25.48-.422.961-.569 1.479-.136.478-.128.978-.221 1.463l.082-.046c-.436-.075-.394-.458-.391-.799.002-.303.039-.606.113-.901.12-.48.283-1.017.526-1.448.256-.455.597-.882.922-1.29.171-.215.349-.429.549-.617.219-.205.467-.458.743-.574.038-.016.022-.079-.017-.063z"/>
      <path d="M25.42 6.809c-.457.311-.829.744-1.153 1.187-.354.483-.724.934-.986 1.473-.445.914-1.037 2.049-.82 3.096.013.063.11.037.098-.027-.216-1.059.451-2.239.878-3.171.208-.454.545-.837.835-1.241a6.679 6.679 0 0 1 1.177-1.279c.021-.017-.006-.053-.029-.038zM3.915 10.858c.049.279.208.534.337.783.156.3.361.573.571.838.405.512.834 1.077 1.39 1.433.529.338 1.072.678 1.686.835.239.061.59.168.839.12.191-.037.298-.229.361-.396.01-.026-.007-.063-.031-.075-.135-.07-.29-.066-.434-.121-.24-.093-.493-.158-.729-.26a5.905 5.905 0 0 1-1.257-.756 7.01 7.01 0 0 1-1.935-2.338 3.922 3.922 0 0 0-.354-.595c-.048-.063-.092-.129-.179-.132-.211-.007-.386.314-.353.495.033.173.138.341.192.508.062.193.121.389.223.566.201.351.479.681.761.968.279.283.502.662.825.895.234.168.651.31.812.553.03.046.104.004.074-.043-.146-.23-.5-.374-.72-.519-.401-.262-.698-.716-1.015-1.073a6.583 6.583 0 0 1-.55-.717c-.176-.264-.239-.558-.343-.852-.053-.15-.22-.399-.022-.537.175-.121.247.104.322.222.169.265.286.558.466.816.652.932 1.457 1.874 2.496 2.388.2.098.396.214.605.291.278.102.632.154.884.313l.031.005c.143.015.071.1-.216.253-.077.016-.213-.026-.29-.038a4.353 4.353 0 0 1-.423-.089 4.187 4.187 0 0 1-.983-.415c-.311-.177-.645-.356-.923-.581-.275-.222-.503-.498-.737-.76a10.25 10.25 0 0 1-.78-.95c-.208-.3-.47-.69-.539-1.05-.008-.041-.07-.024-.063.017z"/>
      <path d="M3.987 10.443c.21.511.555.965.921 1.374.413.462.792.925 1.283 1.306.788.61 1.761 1.405 2.811 1.41.065.001.065-.101 0-.101-1.036-.008-2.008-.834-2.798-1.422-.451-.337-.787-.753-1.165-1.168a6.658 6.658 0 0 1-1.008-1.417c-.012-.024-.054-.007-.044.018zM9.341 25.548c.095.496.459.983.764 1.371.342.434.703.908 1.172 1.211.481.311.976.61 1.541.733.392.085.742.17.907-.269.014-.036-.016-.07-.047-.082-.103-.041-.209-.047-.314-.079-.129-.038-.256-.093-.383-.137a4.895 4.895 0 0 1-.739-.332c-.473-.257-.863-.62-1.226-1.008-.375-.401-.717-.825-.965-1.318-.088-.175-.28-.72-.543-.652-.113.029-.242.221-.253.329-.014.133.095.302.137.422.172.484.374.855.72 1.242.255.286.505.628.797.875.21.177.57.268.728.495.031.045.105.003.074-.044-.109-.166-.345-.272-.507-.375-.26-.166-.425-.368-.625-.602-.311-.364-.687-.713-.898-1.149-.075-.156-.217-.468-.222-.642-.012-.448.161-.265.258-.175.079.073.134.212.182.308a5.893 5.893 0 0 0 1.57 1.903c.342.269.701.482 1.089.677.342.173.733.243 1.084.391l-.046-.082c-.198.494-1.156.052-1.468-.105-.401-.203-.836-.445-1.161-.758-.29-.279-.56-.595-.816-.906-.285-.346-.652-.811-.746-1.259-.009-.041-.07-.023-.063.017z"/>
      <path d="M9.403 25.198c.174.433.467.816.775 1.161.347.39.666.781 1.08 1.101.664.514 1.486 1.186 2.374 1.19.065 0 .065-.101 0-.101-.873-.007-1.69-.703-2.354-1.197-.375-.279-.655-.624-.968-.968a5.861 5.861 0 0 1-.863-1.205c-.012-.023-.054-.007-.044.018zM27.142 19.988c.09.316.022.64-.024.958-.035.246-.069.493-.131.734-.151.591-.501 1.087-.762 1.63-.118.245-.223.497-.361.731-.059.101-.224.269-.178.403.068.197.416.171.558.086.017-.01.031-.031.029-.052-.004-.047.096-.224.111-.267.043-.114.082-.223.138-.332.115-.223.256-.427.353-.66.186-.448.343-.899.491-1.36.154-.478.337-.911.284-1.422-.042-.398-.124-.901-.337-1.245-.02-.033-.067-.049-.101-.026-.307.196-.266.425-.158.733.175.502.074.97-.098 1.459-.181.514-.27 1.06-.496 1.557-.108.237-.238.451-.368.675-.119.204-.189.431-.325.625-.046.066.061.127.107.063.129-.18.199-.389.308-.58.117-.205.243-.395.346-.608.197-.408.309-.835.436-1.269.119-.406.279-.779.326-1.201a1.537 1.537 0 0 0-.012-.469c-.054-.288-.318-.645.008-.857l-.101-.026c.114.181.195.487.246.694.064.259.114.547.103.813-.019.477-.245.959-.384 1.411a7.13 7.13 0 0 1-.587 1.409 3.703 3.703 0 0 0-.252.504c-.032.085-.076.334-.157.375.008-.004-.273-.028-.274-.03-.099-.088.059-.266.099-.334.11-.189.195-.389.284-.588.197-.44.455-.851.642-1.295.143-.34.209-.695.26-1.06.054-.388.15-.81.031-1.193-.011-.034-.064-.02-.054.015zM23.705 6.211v-.006l-.126.303c.088-.069.131-.206.131-.313 0-.013 0-.025.002-.038a.35.35 0 0 0-.038-.172.346.346 0 0 0-.092-.144.342.342 0 0 0-.143-.092.327.327 0 0 0-.172-.038.452.452 0 0 0-.316.131.454.454 0 0 0-.131.316.487.487 0 0 0 .073.26l.069.089c.04.043.087.073.141.091.034.02.071.03.111.03a.326.326 0 0 0 .175-.008c.006-.001.099-.04.104-.044l.087-.067a.252.252 0 0 0 .068-.088.452.452 0 0 0 .058-.209zM26.209 8.492a.195.195 0 0 0-.022-.008l.03.018-.006-.007c-.046-.052-.133-.01-.133.055s.087.107.133.055l.006-.007-.03.018a.195.195 0 0 1 .022-.008c.057-.022.057-.094 0-.116zM21.939 13.729c-.006-.021-.016-.042-.025-.062-.048-.109-.238-.109-.286 0-.009.02-.019.04-.024.062-.03.109.055.22.168.22s.198-.111.168-.22zM22.253 19.439v-.029c0-.045-.02-.098-.053-.129s-.082-.059-.129-.053l-.007.001c-.046.006-.09.015-.123.051s-.044.075-.051.123l-.001.007c-.005.041.024.102.053.129a.19.19 0 0 0 .129.053h.029c.083 0 .153-.07.153-.153zM23.672 22.853c.104 0 .203-.091.198-.198s-.087-.198-.198-.198c-.104 0-.203.091-.198.198s.087.198.198.198zM11.466 25.3h-.037a.316.316 0 0 0-.315.316.32.32 0 0 0 .315.315h.037a.316.316 0 0 0 .315-.315.32.32 0 0 0-.315-.315zM4.428 21.595l.035-.006c.038-.006.073-.037.095-.066a.18.18 0 0 0 .04-.111.225.225 0 0 0-.025-.092c-.019-.036-.069-.078-.109-.084l-.035-.006c-.066-.011-.135-.004-.184.049a.196.196 0 0 0-.056.134c0 .049.021.099.056.134.051.052.115.06.184.049zM8.242 18.573l-.01.029.232-.176-.02.002a.241.241 0 0 0-.123.033 1.622 1.622 0 0 0-.049.038.238.238 0 0 0-.067.204c.018.135.163.251.303.201l.019-.007a.264.264 0 0 0 .125-.086.277.277 0 0 0 .052-.145l.004-.03c.007-.053-.031-.132-.069-.168s-.083-.058-.136-.065c-.121-.016-.22.057-.26.17zM7.422 12.343l-.006-.001.065.009c-.069-.011-.142-.013-.204.027a.288.288 0 0 0-.098.107c-.037.066-.041.14-.012.21s.082.112.152.136c.082.028.168.013.236-.04s.1-.124.104-.21a.24.24 0 0 0-.069-.168.256.256 0 0 0-.168-.069zM3.517 13.324a.183.183 0 0 0 .322.018.046.046 0 0 0 .01-.018c.028-.065.038-.129 0-.194-.034-.058-.098-.095-.166-.095s-.131.037-.166.095c-.038.065-.028.129 0 .194zM6.562 15.623l-.034.009a.161.161 0 0 0-.117.153c.003.069.047.136.117.153l.034.009c.106.027.213-.052.213-.162s-.107-.189-.213-.162zM8.292 6.362l.019-.018c.071-.065.085-.177.05-.262s-.124-.152-.219-.147a.25.25 0 0 0-.207.119c-.052.088-.04.22.037.291l.019.018c.088.08.213.081.301 0zM9.777 4.648l-.012-.012a.181.181 0 0 0-.252 0l-.012.012a.195.195 0 0 0-.04.213.195.195 0 0 0 .178.12.204.204 0 0 0 .168-.096.2.2 0 0 0-.03-.236zM8.872 7.947c.213 0 .213-.33 0-.33s-.213.33 0 .33zM28.791 16.575l-.013-.029c-.047-.104-.228-.104-.274 0a.37.37 0 0 0-.013.029c-.026.058-.034.117 0 .175.031.053.089.086.15.086s.119-.033.15-.086c.034-.058.026-.117 0-.175z"/>
    </symbol>
    <symbol id="icon-facebook" viewBox="0 0 32 32">
      <path stroke-linecap="round" stroke-linejoin="round" stroke-width="1.6" d="M28 10.667v10.667a6.67 6.67 0 0 1-6.667 6.667H10.666a6.67 6.67 0 0 1-6.667-6.667V10.667A6.67 6.67 0 0 1 10.666 4h10.667A6.67 6.67 0 0 1 28 10.667z"/>
      <path stroke-linecap="round" stroke-linejoin="round" stroke-width="1.6" d="M14.667 28V16c0-2.917.667-5.333 5.333-5.333m-8 6.666h8"/>
    </symbol>
   <symbol id="icon-instagram" viewBox="0 0 32 32">
<path stroke-linejoin="round" stroke-linecap="round" stroke-miterlimit="4" stroke-width="1.6" d="M16 21.333c1.415 0 2.771-0.562 3.771-1.562s1.562-2.357 1.562-3.771-0.562-2.771-1.562-3.771c-1-1-2.357-1.562-3.771-1.562s-2.771 0.562-3.771 1.562c-1 1-1.562 2.357-1.562 3.771s0.562 2.771 1.562 3.771c1 1 2.357 1.562 3.771 1.562z"></path>
<path fill="none" stroke-linejoin="miter" stroke-linecap="butt" stroke-miterlimit="4" stroke-width="1.6" d="M4 21.333v-10.667c0-1.768 0.702-3.464 1.953-4.714s2.946-1.953 4.714-1.953h10.667c1.768 0 3.464 0.702 4.714 1.953s1.953 2.946 1.953 4.714v10.667c0 1.768-0.702 3.464-1.953 4.714s-2.946 1.953-4.714 1.953h-10.667c-1.768 0-3.464-0.702-4.714-1.953s-1.953-2.946-1.953-4.714z"></path>
<path  stroke-linejoin="round" stroke-linecap="round" stroke-miterlimit="4" stroke-width="1.6" d="M23.333 8.68l0.013-0.015"></path>
</symbol>
    <symbol id="icon-tiktok" viewBox="0 0 32 32">
      <path stroke-linecap="round" stroke-linejoin="round" stroke-width="1.6" d="M28 10.667v10.667a6.67 6.67 0 0 1-6.667 6.667H10.666a6.67 6.67 0 0 1-6.667-6.667V10.667A6.67 6.67 0 0 1 10.666 4h10.667A6.67 6.67 0 0 1 28 10.667z"/>
      <path stroke-linecap="round" stroke-linejoin="round" stroke-width="1.6" d="M13.333 16a4.004 4.004 0 0 0-3.695 2.469A4 4 0 1 0 17.333 20V8c.444 1.333 2.133 4 5.333 4"/>
    </symbol>
    <symbol id="icon-rooster" viewBox="0 0 32 32">
      <path d="M26.391 17.725c-1.263-1.211-3.583-1.717-6.407-1.887.004-.242.092-.469.21-.69.52-.977 2.255-1.872 3.383-1.369 2.905 1.294 4.407 3.196 4.455 4.67-.419-.283-.987-.543-1.641-.724zm-4.919.549c-.015-.583-.409-1.313-.889-1.855 2.44.021 4.433.488 5.248 1.174-1.356-.261-2.969-.169-4.358.681zm.929 5.86c.145 1.095-.27 1.47-.841 1.47s-1.085-.375-1.229-1.47c-.145-1.095.134-2.494.706-2.494s1.22 1.399 1.364 2.494zm-3.41-10.696c-.529-.158-.828-1.004-1.378-1.048a7.981 7.981 0 0 1 1.393-.089.657.657 0 0 0-.086.332c0 .284.163.515.365.515s.364-.231.364-.515a.678.678 0 0 0-.064-.292c.477.054.923.159 1.34.31-.554-.044-1.082 1.042-1.933.787zm-.104 13.343c-.059 1.58-.749 2.121-1.574 2.121s-1.474-.542-1.414-2.121c.059-1.58.804-3.599 1.63-3.599s1.418 2.019 1.359 3.599zm-6.072-7.282c-.72 2.032.218 4.379 1.215 5.035-3.16.581-3.181-3.288-3.093-5.177-2.206 1.779-2.851 5.712-1.523 8.022-1.334-1.037-1.629-2.487-1.595-4.664-1.088.815-2.534 3.091-2.663 5.452-.822-4.407.295-8.736 3.332-11.757-.969-5.483 3.189-7.897 13.714-6.28-10.981.128-13.027 3.664-9.387 9.37zm11.693-6.915c.992-.959.938-2.053-1.24-2.378.232-1.525 1.169-3.063 3.435-3.024-.718-1.535-3.497-1.767-4.849-1.046.085-1.483.979-2.828 2.52-3.629-2.194-.663-4.393-.155-5.911 1.632-.614-.895-.374-2.153.317-3.455-2.692.236-4.618 1.523-5.832 3.835-.369-.469-.377-1.761-.317-2.694C8.83 2.946 6.079 9.271 8.067 16.309c-5.154 3.897-5.612 11.633-2.409 15.023-.024-2.077.275-3.681 1.284-5.261.469 2.178 2.304 3.337 4.992 3.233-1.78-2-2.201-4.309-1.791-6.751.068 1.572 1.524 2.891 3.768 2.632-.029.356-.044.709-.044 1.051 0 3.317 1.405 4.454 3.138 4.454 1.233 0 2.301-.577 2.813-2.105.19.03.383.045.578.045 1.733 0 2.988-1.137 2.55-4.454-.188-1.425-.658-3.021-1.271-4.378 1.654-1.745 5.432-1.699 6.841.127 1.726-2.948-2.024-6.373-4.008-7.341z"/>
      <path d="M5.673 23.416c1.672-1.762 3.077-3.763 3.946-6.243-2.191 1.355-3.235 3.661-3.946 6.243z"/>
    </symbol>
  
<symbol id="icon-location-pin" viewBox="0 0 32 32">
<path d="M16 0c-5.523 0-10 4.477-10 10 0 10 10 22 10 22s10-12 10-22c0-5.523-4.477-10-10-10zM16 16c-3.314 0-6-2.686-6-6s2.686-6 6-6 6 2.686 6 6-2.686 6-6 6z"></path>
</symbol>
<symbol id="icon-map" viewBox="0 0 41 32">
<path d="M9.239 31.927c0.009 0.006 0.021 0.003 0.030 0.009 0.073 0.037 0.149 0.064 0.231 0.064 0.044 0 0.088-0.006 0.132-0.018l10.868-2.966 10.868 2.966c0.044 0.012 0.088 0.018 0.132 0.018 0.082 0 0.158-0.027 0.23-0.065 0.010-0.005 0.021-0.003 0.030-0.009l9-5.5c0.191-0.117 0.281-0.348 0.22-0.563l-4.984-17.5c-0.041-0.147-0.148-0.267-0.29-0.326-0.142-0.057-0.301-0.048-0.436 0.026l-4.962 2.784c-0.24 0.135-0.326 0.44-0.191 0.681s0.439 0.327 0.682 0.191l4.409-2.475 4.707 16.526-8.015 4.899-1.904-15.231c-0.034-0.275-0.293-0.466-0.559-0.434-0.273 0.034-0.468 0.284-0.434 0.558l1.907 15.259-9.91-2.705v-2.73c0-0.276-0.224-0.5-0.5-0.5s-0.5 0.224-0.5 0.5v2.73l-9.911 2.705 1.907-15.259c0.034-0.274-0.16-0.524-0.434-0.558-0.272-0.032-0.524 0.159-0.559 0.434l-1.903 15.231-8.015-4.898 4.707-16.525 4.409 2.475c0.242 0.134 0.546 0.049 0.682-0.191 0.135-0.241 0.049-0.545-0.191-0.681l-4.963-2.785c-0.133-0.075-0.292-0.085-0.435-0.026s-0.249 0.178-0.29 0.326l-4.984 17.5c-0.062 0.216 0.028 0.446 0.22 0.563l8.999 5.5zM20.161 23.368c0.096 0.088 0.217 0.132 0.339 0.132 0.12 0 0.24-0.043 0.336-0.129 0.333-0.303 8.164-7.489 8.164-14.871 0-4.767-3.733-8.5-8.5-8.5s-8.5 3.733-8.5 8.5c0 7.254 7.828 14.56 8.161 14.868zM20.5 1c4.275 0 7.5 3.224 7.5 7.5 0 6.097-5.993 12.337-7.497 13.807-1.501-1.487-7.503-7.809-7.503-13.807 0-4.276 3.225-7.5 7.5-7.5zM25 8.5c0-2.481-2.019-4.5-4.5-4.5s-4.5 2.019-4.5 4.5 2.019 4.5 4.5 4.5 4.5-2.019 4.5-4.5zM20.5 12c-1.93 0-3.5-1.57-3.5-3.5s1.57-3.5 3.5-3.5 3.5 1.57 3.5 3.5-1.57 3.5-3.5 3.5z"></path>
</symbol>
<symbol id="icon-truck" viewBox="0 0 32 32">
<path d="M26.969 13c-0.553 0-1 0-1 0h-1.979l-0.013 1.256c0.598 0.341 0.992 0.989 0.992 1.744l0.042 6.938h-18.98v-6.938c0-0.738 0.404-1.376 1-1.723v-1.277h-2c0 0-0.448 0-1 0-0.553 0-1-0.448-1-1v-1c0-0.553 0.447-1 1-1 0.552 0 1 0 1 0v2h2v-3c0-1.104 0.896-2 2-2h13c1.104 0 2 0.896 2 2l-0.031 3h1.969v-2c0 0 0.447 0 1 0 0.552 0 1 0.447 1 1v1c0 0.552-0.448 1-1 1zM12.031 22h7v-1h-7v1zM12.031 20h7v-1h-7v1zM12.031 18h7v-1h-7v1zM8.031 21c0 0.552 0.447 1 1 1h1c0.552 0 1-0.448 1-1 0-0.553-0.448-1-1-1h-1c-0.552 0-1 0.447-1 1zM22.031 10c0-0.553-0.447-1-1-1h-11c-0.553 0-1 0.447-1 1v5h13v-5zM22.031 20h-1c-0.553 0-1 0.447-1 1 0 0.552 0.447 1 1 1h1c0.552 0 1-0.448 1-1 0-0.553-0.448-1-1-1zM23.031 6h-15c-1.104 0-2 0.896-2 2v-5c0-0.553 0.447-1 1-1h17c0.552 0 1 0.447 1 1v5c0-1.104-0.895-2-2-2zM25.031 24.938c0 0.552-0.448 1-1 1h-17c-0.553 0-1-0.448-1-1 0-0.553 0-1 0-1h19c0 0 0 0.447 0 1zM11.031 29c0 0.552-0.448 1-1 1h-1c-0.553 0-1-0.448-1-1v-2h3v2zM23.031 29c0 0.552-0.448 1-1 1h-1c-0.553 0-1-0.448-1-1v-2h3v2z"></path>
</symbol>
<symbol id="icon-mail" viewBox="0 0 32 32">
<path d="M26.711 27.833h-21.458c-2.8 0-5.077-2.277-5.077-5.077v-13.547c0-2.799 2.278-5.077 5.077-5.077h21.458c2.799 0 5.077 2.278 5.077 5.077v13.547c0 2.8-2.277 5.077-5.077 5.077zM5.253 5.616c-1.981 0-3.593 1.612-3.593 3.593v13.547c0 1.981 1.612 3.593 3.593 3.593h21.458c1.981 0 3.593-1.612 3.593-3.593v-13.547c0-1.981-1.612-3.593-3.593-3.593h-21.458z"></path>
<path d="M4.055 9.279c3.795 3.698 7.59 7.396 11.385 11.094 0.707 0.689 1.793-0.394 1.085-1.085-3.795-3.698-7.59-7.396-11.385-11.093-0.707-0.689-1.793 0.394-1.085 1.084v0z"></path>
<path d="M16.524 20.373c3.795-3.698 7.59-7.396 11.385-11.093 0.708-0.69-0.377-1.774-1.085-1.085-3.795 3.698-7.59 7.396-11.385 11.093-0.708 0.69 0.377 1.774 1.085 1.085v0z"></path>
<path d="M27.867 22.99c-2.525-2.395-5.051-4.789-7.576-7.184-0.716-0.679-1.803 0.404-1.085 1.085 2.525 2.395 5.051 4.789 7.576 7.184 0.716 0.679 1.803-0.404 1.085-1.085v0z"></path>
<path d="M5.25 24.075c2.525-2.395 5.051-4.789 7.576-7.184 0.718-0.681-0.368-1.764-1.085-1.085-2.525 2.395-5.051 4.789-7.576 7.184-0.718 0.681 0.368 1.764 1.085 1.085v0z"></path>
</symbol>
  </defs>
</svg>
